<svg width="193" height="57" fill="none" xmlns="http://www.w3.org/2000/svg"><path d="m182.841 49.594-4.039-7.95c-.224-.417-.449-.706-.705-.866-.257-.128-.642-.225-1.154-.257l.031-.801h5.771v.801h-.192c-.545 0-.93.032-1.186.129-.257.096-.385.224-.385.416 0 .096.032.193.064.289.032.128.128.32.288.577l3.271 6.252 2.885-5.707a2.1 2.1 0 0 0 .193-.513c.032-.16.064-.32.064-.449 0-.352-.129-.609-.417-.77-.289-.16-.738-.256-1.315-.256l.032-.801h4.841v.801c-.833.097-1.507.642-2.019 1.604-.032.095-.096.16-.096.224l-3.623 6.925v4.36c0 .801.128 1.314.352 1.57.257.257.738.386 1.475.386h.417v.8h-6.668v-.8h.416c.705 0 1.186-.129 1.411-.353.224-.257.353-.77.353-1.603v-4.008h-.065Zm-7.47-9.874 1.379 4.007-.737.257c-1.154-1.507-2.084-2.469-2.725-2.886a3.554 3.554 0 0 0-2.084-.64c-.353 0-.577.063-.738.192-.128.128-.192.352-.192.673V53.57c0 .833.128 1.378.353 1.635.256.256.737.385 1.474.385h.417v.801h-6.7v-.801h.416c.738 0 1.219-.129 1.443-.353.225-.257.353-.802.353-1.635v-12.28c0-.32-.064-.544-.193-.672-.128-.129-.384-.193-.737-.193a3.64 3.64 0 0 0-2.084.642c-.641.448-1.539 1.41-2.725 2.885l-.737-.257 1.378-4.007h12.439Zm-14.49 0v.833h-.449c-.738 0-1.219.129-1.443.353-.224.257-.353.834-.353 1.7v10.803c0 .93.129 1.507.353 1.764.224.256.737.384 1.475.384h.384v.802h-6.668v-.802h.288c.77 0 1.283-.128 1.54-.352.256-.257.384-.802.384-1.7v-10.9c0-.93-.128-1.539-.352-1.763-.225-.224-.738-.32-1.507-.32h-.321v-.834h6.669v.032Zm-18.018 17.024-1.667-4.457.769-.288c.93 1.25 1.924 2.212 2.918 2.885 1.026.673 2.02 1.026 2.981 1.026.898 0 1.667-.32 2.276-.93.61-.609.93-1.378.93-2.308 0-.93-.288-1.667-.833-2.212-.578-.545-1.731-1.058-3.463-1.603-.096-.032-.256-.064-.481-.128-1.41-.385-2.404-.866-3.045-1.507a4.46 4.46 0 0 1-1.026-1.54 4.957 4.957 0 0 1-.353-1.794c0-1.283.417-2.34 1.282-3.206.834-.866 1.924-1.283 3.174-1.283.513 0 1.058.097 1.668.289.609.192.961.288 1.09.288.224 0 .448-.032.705-.128.256-.096.577-.192.897-.352l1.571 4.2-.673.352c-.898-1.314-1.795-2.276-2.661-2.918-.865-.64-1.699-.961-2.565-.961-.833 0-1.506.288-2.051.833-.545.578-.802 1.283-.802 2.116 0 .481.096.898.257 1.25.16.385.448.706.833 1.026.513.418 1.539.834 3.11 1.25.385.097.673.16.866.225 1.41.385 2.468.994 3.173 1.828.706.833 1.059 1.86 1.059 3.11 0 1.378-.449 2.532-1.347 3.494-.898.962-1.988 1.443-3.27 1.443a6.467 6.467 0 0 1-2.276-.417c-.77-.256-1.187-.417-1.251-.417-.16 0-.384.064-.673.193-.321.16-.673.352-1.122.64Zm-12.375-9.298h1.859c1.475 0 2.501-.256 3.174-.801.641-.513.994-1.379.994-2.565 0-1.218-.288-2.148-.898-2.725-.609-.577-1.571-.866-2.885-.866-.93 0-1.507.129-1.795.353-.289.224-.417.77-.417 1.603v5.001h-.032Zm6.155 8.977-4.456-8.111h-1.699v5.354c0 .801.128 1.346.353 1.57.256.257.705.354 1.442.354h.385v.801h-6.636v-.801h.384c.738 0 1.219-.129 1.475-.385.224-.257.353-.866.353-1.796v-10.9c0-.834-.129-1.379-.353-1.603-.225-.224-.737-.353-1.507-.353h-.352v-.833h6.636c2.084 0 3.655.385 4.713 1.122 1.058.738 1.603 1.86 1.603 3.302 0 1.09-.353 1.988-1.122 2.63-.738.64-1.892 1.121-3.431 1.377l3.046 5.355c.481.865.929 1.41 1.347 1.667.384.256.929.384 1.602.384h.161v.802h-3.944v.064Zm-26.128 0v-.802h.384c.738 0 1.219-.128 1.475-.384.225-.257.353-.834.353-1.731V42.637c0-.93-.128-1.507-.353-1.73-.224-.225-.737-.321-1.539-.321h-.32v-.834h11.669l1.636 3.911-.642.257c-1.026-1.315-1.955-2.212-2.789-2.726-.833-.48-1.859-.737-3.046-.737-.961 0-1.603.129-1.891.385-.321.257-.449.77-.449 1.539v4.905h1.154c1.058 0 1.86-.224 2.373-.641.513-.417.833-1.122.994-2.116h.801v6.444h-.801c-.129-1.026-.449-1.731-.962-2.18-.513-.449-1.315-.673-2.405-.673h-1.154v5.706c0 .641.128 1.058.417 1.315.288.224.801.352 1.507.352 1.442 0 2.725-.288 3.815-.898 1.122-.608 2.116-1.538 3.013-2.82l.673.224-1.602 4.36h-12.311v.064ZM101.73 57l-4.777-13.85c0-.032-.032-.096-.032-.128-.545-1.539-1.378-2.372-2.5-2.469v-.801h6.187v.801c-.705.033-1.218.129-1.475.257-.288.128-.416.32-.416.577 0 .096.032.224.064.417.032.192.128.449.224.705l3.687 10.58 3.463-10.26c.064-.192.128-.384.16-.544.032-.16.032-.321.032-.481 0-.417-.128-.706-.417-.898-.288-.192-.737-.288-1.411-.353v-.801h5.002v.801c-.545.033-.994.193-1.283.481-.288.257-.577.738-.801 1.443L102.404 57h-.674Zm-7.983-17.28v.833H93.3c-.738 0-1.219.129-1.443.353-.224.257-.353.834-.353 1.7v10.803c0 .93.129 1.507.353 1.764.224.256.737.384 1.475.384h.384v.802h-6.668v-.802h.288c.77 0 1.283-.128 1.54-.352.256-.257.384-.802.384-1.7v-10.9c0-.93-.128-1.539-.353-1.763-.224-.224-.737-.32-1.506-.32h-.321v-.834h6.668v.032Zm-19.877 0 9.105 12.952v-9.105c0-1.09-.192-1.827-.545-2.276-.352-.45-.994-.673-1.859-.673v-.898h5.867v.898c-.866 0-1.507.256-1.86.673-.384.449-.545 1.186-.545 2.276v13.177h-.801l-9.875-14.17v9.938c0 1.09.193 1.827.546 2.276.352.449.993.673 1.859.673v.898h-5.867v-.898c.866 0 1.507-.256 1.86-.673.352-.45.544-1.186.544-2.276V41.515c-.256-.288-.609-.513-.993-.673-.385-.16-.866-.256-1.411-.289v-.833h3.975Zm-9.81.93v-.898h5.418v.898c-.801.032-1.346.288-1.699.737-.32.449-.48 1.186-.48 2.244v6.604c0 2.245-.482 3.912-1.411 4.97-.93 1.058-2.405 1.603-4.36 1.603-1.956 0-3.431-.513-4.425-1.507-.994-.994-1.507-2.5-1.507-4.457v-8.27c0-.802-.128-1.347-.352-1.604-.257-.256-.738-.384-1.475-.384h-.385v-.802h6.7v.802h-.416c-.737 0-1.218.128-1.443.384-.224.257-.352.802-.352 1.7v8.56c0 1.538.352 2.66 1.026 3.43.673.77 1.699 1.122 3.11 1.122 1.442 0 2.5-.417 3.205-1.283.706-.865 1.058-2.18 1.058-3.91V43.63c0-1.058-.16-1.795-.48-2.244-.353-.449-.93-.706-1.732-.737ZM177.135 20.805l-7.694-15.1c-.449-.802-.898-1.347-1.347-1.635-.481-.257-1.186-.417-2.18-.481l.032-1.539h10.965V3.59h-.385c-1.026 0-1.763.096-2.244.256-.481.193-.706.45-.706.834 0 .16.033.353.129.577.096.224.256.61.545 1.09l6.219 11.894 5.483-10.868c.16-.353.288-.673.384-.994.097-.32.128-.609.128-.866 0-.64-.256-1.121-.801-1.442-.545-.32-1.378-.481-2.532-.481l.032-1.539h9.233V3.59c-1.603.192-2.886 1.218-3.848 3.046-.096.192-.16.32-.192.416l-6.893 13.177V28.5c0 1.507.225 2.501.674 2.982.448.48 1.378.705 2.789.705h.801v1.54h-12.695v-1.54h.801c1.347 0 2.244-.224 2.693-.673.449-.449.641-1.475.641-3.078v-7.63h-.032ZM162.965 2.05l2.597 7.63-1.379.513c-2.212-2.853-3.943-4.68-5.162-5.482-1.218-.833-2.532-1.218-3.975-1.218-.673 0-1.122.128-1.378.352-.257.225-.385.674-.385 1.283v23.275c0 1.571.224 2.629.673 3.11.449.48 1.379.705 2.789.705h.802v1.54h-12.728v-1.54h.801c1.379 0 2.309-.224 2.725-.705.449-.481.674-1.507.674-3.078V5.095c0-.64-.128-1.057-.385-1.282-.256-.224-.705-.352-1.378-.352-1.443 0-2.79.417-3.976 1.218-1.218.833-2.917 2.661-5.161 5.482l-1.379-.513 2.629-7.63h23.596v.032Zm-27.571 0v1.603h-.834c-1.411 0-2.341.225-2.757.705-.449.481-.641 1.571-.641 3.27v20.519c0 1.73.224 2.853.705 3.334.449.48 1.379.737 2.789.737h.769v1.54h-12.663v-1.54h.545c1.475 0 2.437-.224 2.918-.673.48-.449.705-1.539.705-3.238V7.597c0-1.796-.225-2.886-.674-3.335-.449-.417-1.41-.641-2.853-.641h-.641V2.018h12.632v.032Zm-23.372 2.116-10.676 29.591h-1.186L89.292 4.52v21.897c0 1.955.32 3.366.961 4.232.641.833 1.732 1.314 3.206 1.41l.032 1.731H83.168v-1.731c1.507-.128 2.597-.61 3.238-1.443.641-.833.962-2.244.962-4.2V8.014c0-2.052-.224-3.27-.641-3.719-.417-.449-1.315-.64-2.661-.64h-.898V2.05h9.105l9.458 25.295 9.265-25.295h9.49v1.603h-.802c-1.41 0-2.308.225-2.725.705-.417.481-.641 1.603-.641 3.463v20.55c0 1.635.224 2.693.641 3.174.449.48 1.347.705 2.693.705h.802v1.54h-12.568v-1.54h.737c1.379 0 2.309-.224 2.758-.673.448-.449.641-1.507.641-3.174V4.166ZM53.064 33.757v-1.539c1.058-.064 1.86-.352 2.436-.897.578-.545 1.123-1.571 1.636-3.142l8.4-25.776 3.462-1.122 9.393 27.86c.192.64.417 1.154.673 1.57.257.417.546.738.866.994.224.16.481.257.834.353.352.096.865.128 1.538.16v1.54H70.601v-1.54h.288c1.25 0 2.116-.16 2.629-.449.513-.288.738-.8.738-1.538 0-.129-.032-.321-.097-.61a9.598 9.598 0 0 0-.288-.93l-1.988-5.93H60.758l-1.474 4.937a3.51 3.51 0 0 0-.193.833c-.064.289-.064.61-.064.93 0 .962.257 1.635.737 2.116.481.449 1.25.673 2.245.673h.448v1.54h-9.393v-.033Zm8.368-13.016h9.714L66.305 5.705 61.432 20.74Z" fill="#fff"/><path fill-rule="evenodd" clip-rule="evenodd" d="M23.505 55.942c5.835-2.404 9.81-4.264 12.503-5.706 4.072-2.148 7.534-4.777 9.361-9.17 1.09-2.564 1.636-5.642 1.572-9.329-.033-8.688-.065-17.344-.129-26.032-12.727-7.053-33.951-7.053-46.679 0C.101 14.393.07 23.049.005 31.737c-.064 3.687.48 6.765 1.571 9.33 1.86 4.36 5.322 7.02 9.361 9.169 2.758 1.442 6.733 3.302 12.568 5.706Z" fill="#fff"/><path fill-rule="evenodd" clip-rule="evenodd" d="M11.578 7.564h1.892l-.93-2.917-.962 2.917Zm-1.635 2.533v-.289a.787.787 0 0 0 .481-.16c.096-.096.225-.32.32-.61l1.636-5 .673-.225 1.827 5.418c.032.128.097.225.129.289.064.096.096.16.16.192a.245.245 0 0 0 .16.064c.064 0 .16.032.289.032v.289H13.34v-.289h.065c.224 0 .416-.032.512-.096a.337.337 0 0 0 .16-.288c0-.032 0-.065-.031-.129 0-.064-.032-.128-.064-.192l-.385-1.154H11.45l-.288.962c-.033.064-.033.096-.033.16v.192c0 .193.033.32.129.417.096.096.224.128.448.128h.097v.289h-1.86Zm11.478-5.771-2.084 5.739h-.224L16.995 4.39v4.264c0 .385.065.641.193.834.128.16.32.256.609.288v.32h-2.02v-.32c.289-.032.513-.128.641-.288.129-.16.193-.45.193-.802v-3.59c0-.385-.032-.642-.129-.738-.096-.096-.256-.128-.513-.128h-.16v-.32h1.763l1.828 4.904 1.795-4.905h1.86v.32h-.16c-.257 0-.45.033-.546.129-.096.096-.128.32-.128.673V9.04c0 .32.032.513.128.609.096.096.257.128.513.128h.16v.289h-2.436v-.289h.128c.257 0 .45-.032.545-.128.096-.096.128-.289.128-.61V4.327h.033Zm4.52-.417v.32h-.16c-.289 0-.45.033-.545.129-.096.096-.128.289-.128.641v4.008c0 .352.032.545.128.64.096.097.256.161.545.161h.16v.289h-2.469v-.289h.097c.288 0 .48-.032.577-.128.096-.096.128-.288.128-.641v-4.04c0-.352-.032-.577-.128-.641-.096-.096-.257-.128-.545-.128h-.129v-.32h2.47Zm5.354 0 .513 1.475-.256.096c-.417-.545-.77-.897-.994-1.058-.225-.16-.481-.224-.77-.224-.128 0-.224.032-.256.064-.064.032-.064.128-.064.256v4.52c0 .321.032.514.128.61.096.096.256.128.545.128h.16v.289h-2.468v-.289h.16c.256 0 .449-.032.545-.128.096-.096.128-.289.128-.61v-4.52a.497.497 0 0 0-.064-.256.496.496 0 0 0-.256-.064c-.29 0-.545.096-.77.224-.224.16-.577.513-.994 1.058l-.256-.096.513-1.475h4.456Zm2.757 3.655-1.507-2.95c-.096-.16-.16-.256-.256-.32s-.224-.096-.417-.096v-.289h2.116v.289h-.064c-.192 0-.353.032-.449.064-.096.032-.128.096-.128.16 0 .032 0 .064.032.096s.064.129.096.225l1.218 2.308 1.058-2.116c.032-.064.065-.128.065-.192.031-.064.031-.128.031-.16a.337.337 0 0 0-.16-.289c-.096-.064-.256-.096-.48-.096v-.289h1.795v.289c-.32.032-.545.224-.738.609-.032.032-.032.064-.032.064l-1.346 2.565v1.603c0 .288.032.48.128.577.096.096.257.128.545.128h.16v.289h-2.468v-.289h.16c.256 0 .449-.032.513-.128.096-.096.128-.289.128-.61V7.565ZM12.06 11.475v-.16h1.057v.16a.428.428 0 0 0-.32.128c-.064.096-.096.224-.096.417v1.218c0 .417-.096.737-.289.93-.192.192-.48.288-.866.288-.384 0-.673-.096-.865-.288-.192-.193-.289-.45-.289-.834v-1.539c0-.16-.032-.256-.064-.288-.032-.032-.128-.064-.288-.064h-.064v-.129h1.282v.16h-.096a.54.54 0 0 0-.289.065c-.032.032-.064.16-.064.32v1.603c0 .289.064.481.193.642.128.128.352.224.609.224.288 0 .48-.064.64-.224.129-.16.193-.417.193-.738v-1.282c0-.193-.032-.32-.096-.417-.032-.16-.128-.192-.289-.192Zm1.923-.193 1.795 2.405v-1.7c0-.192-.032-.352-.096-.416-.064-.096-.192-.128-.352-.128v-.16h1.154v.16c-.16 0-.289.032-.353.128s-.096.224-.096.417v2.436h-.16l-1.956-2.629v1.828c0 .192.032.352.096.417.064.096.193.128.353.128v.16h-1.154v-.16c.16 0 .288-.032.352-.128.064-.097.097-.225.097-.417v-1.988c-.065-.064-.129-.096-.193-.128a.642.642 0 0 0-.288-.064v-.16h.801Zm3.911 0v.16h-.096c-.16 0-.256.033-.288.065-.032.032-.064.16-.064.32v1.988c0 .16.032.289.064.32.032.065.16.065.288.065h.064v.16h-1.314v-.16h.064c.16 0 .257-.032.289-.064.064-.032.064-.16.064-.321v-2.02c0-.16-.032-.288-.064-.32-.032-.032-.16-.064-.289-.064h-.064v-.16h1.346v.031Zm1.571 3.206-.93-2.565v-.032c-.096-.288-.288-.448-.48-.448v-.16h1.218v.16c-.128 0-.224.032-.289.032-.064.032-.096.064-.096.096v.064c0 .032.032.096.032.128l.738 1.956.673-1.892c0-.032.032-.064.032-.096v-.096a.176.176 0 0 0-.096-.16.642.642 0 0 0-.289-.064v-.16h.994v.16a.365.365 0 0 0-.256.096c-.064.064-.097.128-.16.256l-.995 2.693h-.096v.032Zm1.732-.096v-.16h.064c.16 0 .256-.032.288-.064.032-.032.064-.16.064-.32v-2.02c0-.16-.032-.29-.064-.321-.032-.032-.16-.064-.288-.064h-.064v-.16h2.308l.32.737-.128.032a1.957 1.957 0 0 0-.545-.513c-.16-.096-.353-.128-.609-.128a.922.922 0 0 0-.385.064c-.064.032-.096.128-.096.288v.898h.224c.225 0 .353-.032.481-.128.097-.065.16-.193.193-.385h.16v1.186h-.16c-.032-.192-.096-.32-.193-.417-.096-.096-.256-.128-.48-.128h-.225v1.058c0 .128.032.193.096.257.064.032.16.064.289.064.288 0 .545-.064.737-.16.225-.097.417-.29.577-.514l.129.033-.321.8h-2.372v.065Zm5.161 0-.866-1.507h-.352v.994c0 .16.032.257.064.289.064.032.128.064.288.064h.065v.16h-1.315v-.16h.064c.16 0 .257-.032.289-.064.032-.032.064-.16.064-.32v-2.02c0-.16-.032-.257-.064-.29-.032-.031-.16-.063-.289-.063h-.064v-.16h1.315c.417 0 .705.064.93.224.224.128.32.352.32.609a.577.577 0 0 1-.224.48c-.16.13-.353.193-.674.257l.61.994c.096.16.192.257.256.32.064.065.192.065.32.065h.033v.16h-.77v-.032Zm-1.218-1.667h.352c.29 0 .482-.064.61-.16.128-.097.192-.257.192-.481 0-.224-.064-.385-.192-.513-.128-.096-.32-.16-.578-.16-.192 0-.288.032-.352.064s-.096.16-.096.288v.962h.064Zm2.436 1.731-.32-.833.16-.064c.192.224.385.416.577.545.193.128.385.192.577.192.193 0 .32-.064.45-.16.127-.129.192-.257.192-.417a.61.61 0 0 0-.16-.417c-.097-.096-.354-.192-.674-.288-.032 0-.064 0-.096-.032-.289-.065-.481-.16-.61-.289a.756.756 0 0 1-.192-.289 1.141 1.141 0 0 1-.064-.32c0-.224.096-.449.257-.577.16-.16.384-.225.64-.225.097 0 .193.032.321.065.129.032.193.064.225.064s.096 0 .128-.032c.064 0 .096-.032.16-.065l.32.77-.127.064a2.866 2.866 0 0 0-.513-.545.853.853 0 0 0-.513-.192.675.675 0 0 0-.417.16.53.53 0 0 0-.16.385c0 .096.032.16.064.224a.846.846 0 0 0 .16.192c.096.065.289.16.61.225.063.032.127.032.16.032.288.064.48.192.609.353.128.16.192.352.192.577a.895.895 0 0 1-.256.64.894.894 0 0 1-.642.257c-.16 0-.288-.032-.448-.064-.16-.064-.225-.064-.257-.064s-.064 0-.128.032c-.064 0-.128.032-.225.096Zm3.559-3.174v.16h-.096c-.16 0-.257.033-.289.065-.032.032-.064.16-.064.32v1.988c0 .16.032.289.064.32.064.065.16.065.289.065h.064v.16h-1.315v-.16h.065c.16 0 .256-.032.288-.064.064-.032.064-.16.064-.321v-2.02c0-.16-.032-.288-.064-.32-.032-.032-.16-.064-.288-.064h-.065v-.16h1.347v.031Zm2.854 0 .256.738-.128.064a2.806 2.806 0 0 0-.545-.545c-.129-.064-.257-.128-.417-.128-.064 0-.128 0-.128.032-.032.032-.032.064-.032.128v2.276c0 .16.032.257.064.289.032.032.128.064.288.064h.096v.16h-1.346v-.16h.096a.54.54 0 0 0 .288-.064c.032-.032.065-.16.065-.289v-2.276c0-.064 0-.096-.032-.128-.033-.032-.065-.032-.129-.032a.645.645 0 0 0-.416.128c-.129.096-.289.256-.545.545l-.16-.064.256-.738h2.469Zm1.474 1.86-.801-1.475c-.032-.064-.097-.128-.129-.16-.064-.032-.128-.032-.224-.032v-.16h1.122v.16H35.4c-.096 0-.192 0-.224.032-.064.032-.064.032-.064.096v.064c0 .032.032.064.064.096l.64 1.154.578-1.057c.032-.033.032-.065.032-.097v-.096c0-.064-.032-.096-.096-.128-.065-.032-.16-.032-.257-.032v-.16h.962v.16a.573.573 0 0 0-.385.288c0 .032 0 .032-.032.032l-.705 1.283v.801c0 .16.032.257.064.289.064.032.128.064.288.064h.097v.16h-1.315v-.16h.097a.642.642 0 0 0 .288-.064c.032-.032.064-.128.064-.289v-.77" fill="#002D5D"/><path fill-rule="evenodd" clip-rule="evenodd" d="M23.505 53.986c3.911-1.635 7.95-3.366 11.67-5.322 3.686-1.955 6.893-4.328 8.56-8.27 1.154-2.694 1.474-5.708 1.442-8.593v-.032l-.096-14.427c-13.144-2.629-34.945-.705-43.184 11.029l-.032 3.398v.032c-.065 2.917.288 5.899 1.442 8.592 1.667 3.943 4.873 6.316 8.56 8.271 3.687 1.988 7.695 3.72 11.638 5.322Z" fill="#FFCA04"/><path fill-rule="evenodd" clip-rule="evenodd" d="M20.043 43.31c2.34 4.745 12.182 2.918 11.06-3.622.802.256 1.218 1.026 1.315 2.115.128 1.283-.225 2.47-.385 3.751-.257 1.988-.225 3.848.096 6.124-.641.417-1.443.77-2.244 1.058-.225-.93-.513-1.924-.738-2.821a4.293 4.293 0 0 1-.608.16c.224.962.48 1.923.737 2.853a3.32 3.32 0 0 1-.545.128 210.01 210.01 0 0 0-1.058-2.564c-.257 0-.61-.032-.866-.064.417.897.834 1.859 1.25 2.789-.288.032-.544.096-.801.096-.48-.93-.994-1.892-1.475-2.822-.256 0-.513-.031-.77-.063.546.962 1.123 1.987 1.636 2.949h.032c-.385 0-.77 0-1.09-.064l-3.687-5.194c2.116 1.86 6.54 1.892 8.528-.224.577-.481.192-1.507-.802-.706-.833.674-1.923 1.123-3.045 1.283-1.731.288-3.527-.032-4.937-1.058-1.219-.898-2.052-2.212-1.604-4.104Zm2.532 3.399c.096.032.128.096.128.16s-.096.128-.192.096-.128-.096-.128-.16c.032-.064.096-.129.192-.096Zm.738.128c.16.032.288.192.256.352a.295.295 0 0 1-.353.225c-.16-.032-.288-.192-.256-.353a.295.295 0 0 1 .352-.224Zm.673.192c-.064.128-.032.32.128.45.16.127.385.127.577.127 2.084.064 3.815-.577 5.162-1.923.192-.193.16-.481-.032-.45-1.54 1.091-3.27 1.732-5.098 1.572-.256 0-.64-.064-.737.224" fill="#fff"/><path fill-rule="evenodd" clip-rule="evenodd" d="M30.334 31.16c-2.244 1.025-2.885 4.263-2.757 6.572.064.865.16 1.763-.224 2.596-1.058 2.405-4.745.93-3.944-2.404.802-3.366 2.469-6.412 2.501-10.387 0-3.27-1.314-6.188-3.975-8.817.833 2.886-.545 4.393-2.116 6.124-.866.961-1.731 1.86-2.116 3.11-.577 1.698-.385 3.59.865 5.257-.128-1.058-.16-2.052 0-2.95.546-2.596 3.944-3.814 4.777-6.09.898 1.442.61 3.526-.16 5.482-1.443 3.013-4.36 7.117-3.59 10.611.448 2.116 1.506 3.623 3.494 4.425 2.436.993 5.45 0 6.636-2.437.577-1.186.61-2.533.224-3.975-1.314-4.425-.512-5.835.385-7.118Z" fill="#002D5D"/><path d="m30.237 31 .224.256c-.417.642-.833 1.283-.994 2.309-.16 1.058-.032 2.5.61 4.68.192.738.288 1.475.256 2.149a5.162 5.162 0 0 1-.481 1.955c-.866 1.796-2.725 2.854-4.649 2.885-.384 0-.737 0-1.122-.064a4.266 4.266 0 0 1-1.09-.32c-1.026-.417-1.795-.994-2.372-1.764-.577-.769-.962-1.699-1.218-2.789-.61-2.789 1.09-5.963 2.532-8.656.385-.737.77-1.41 1.058-2.051.545-1.38.834-2.822.642-4.04a5.133 5.133 0 0 0-.16-.673 2.214 2.214 0 0 0-.13-.32c-.448.929-1.281 1.666-2.147 2.436-1.09.961-2.18 1.955-2.469 3.302-.096.417-.128.897-.128 1.378 0 .481.032.994.128 1.507l-.32.129c-.93-1.251-1.282-2.597-1.219-3.912l.097-.77c.064-.256.128-.48.192-.737.417-1.25 1.25-2.18 2.084-3.11l.064-.064c1.539-1.699 2.885-3.174 2.084-5.963l.288-.16c1.347 1.346 2.34 2.725 3.014 4.232.673 1.475.994 3.046.994 4.713 0 2.66-.77 4.905-1.507 7.117-.353 1.09-.737 2.18-.994 3.302-.288 1.186.032 2.084.577 2.693.225.256.513.449.802.545.288.096.609.16.897.128.546-.064 1.058-.417 1.347-1.058.32-.737.257-1.539.224-2.34v-.192c-.096-1.668.193-3.847 1.25-5.322a4.21 4.21 0 0 1 .706-.802c.32-.256.61-.449.93-.609Zm-.449.673c-.064.064-.128.096-.192.16a3.542 3.542 0 0 0-.642.738c-.994 1.41-1.282 3.494-1.186 5.13v.192c.064.833.128 1.7-.256 2.5-.353.77-.962 1.187-1.603 1.251-.353.032-.738 0-1.058-.128a2.318 2.318 0 0 1-.93-.642c-.61-.64-.962-1.699-.641-2.981.256-1.122.641-2.212.994-3.334.737-2.18 1.474-4.393 1.474-7.021 0-1.603-.32-3.142-.961-4.585-.578-1.282-1.411-2.5-2.501-3.687.48 2.565-.802 4.008-2.308 5.675l-.065.064c-.833.898-1.635 1.795-2.02 2.981-.063.225-.127.45-.192.706-.032.224-.096.48-.096.705a5.508 5.508 0 0 0 .738 3.11c-.032-.289-.032-.577-.032-.866a6.9 6.9 0 0 1 .128-1.442c.288-1.475 1.442-2.501 2.564-3.495.93-.834 1.828-1.635 2.213-2.629l.128-.32.192.288c.128.225.225.449.32.673.097.225.161.481.193.738.225 1.282-.096 2.789-.641 4.232-.32.64-.673 1.346-1.09 2.083-1.443 2.63-3.078 5.74-2.5 8.4.224 1.026.608 1.924 1.153 2.63.546.704 1.283 1.282 2.245 1.666.32.128.673.225 1.026.289.352.064.705.096 1.058.064 1.795-.064 3.526-1.026 4.36-2.693.288-.577.416-1.186.448-1.828.032-.64-.064-1.314-.224-2.02-.641-2.244-.77-3.75-.609-4.84-.032-.674.224-1.25.513-1.764" fill="#A7A9AB"/></svg>