<svg width="169" height="155" fill="none" xmlns="http://www.w3.org/2000/svg"><path fill-rule="evenodd" clip-rule="evenodd" d="m62.134 97.262-61.719.073C.303 76.686-.195 55.67.084 35.071.215 25.69 3.886 16.967 9.99 10.59 22.448-2.424 44.648-3.592 58.099 8.556c5.742 5.187 9.363 12.344 10.774 20.357 8.404 1.574 15.571 5.447 20.718 11.116 5.397 5.944 8.542 13.81 8.542 23.013 0 9.541-3.835 18.2-10.415 24.433-6.855 6.493-16.188 9.787-25.584 9.787ZM5.6 92.132l56.524-.067c8.981-.06 16.592-3.242 21.996-8.36 5.547-5.255 8.78-12.577 8.78-20.663 0-7.867-2.641-14.537-7.173-19.528-5.9-6.498-13.052-8.841-21.473-10.04-1.07-8.23-3.257-15.29-9.651-21.065-11.335-10.24-30.343-9.19-40.83 1.767C8.55 19.633 5.409 27.1 5.296 35.133c-.25 18.783.201 38.116.304 56.998Z" fill="#fff"/><path fill-rule="evenodd" clip-rule="evenodd" d="M34.458 44.393c-10.446 0-18.913 8.443-18.913 18.857 0 10.415 8.467 18.858 18.913 18.858 10.445 0 18.912-8.443 18.912-18.858 0-10.414-8.467-18.857-18.912-18.857Zm-23.976-4.965h47.932v47.74H10.482v-47.74Z" fill="#008043"/><path fill-rule="evenodd" clip-rule="evenodd" d="M63.91 39.546v47.48c13.15 0 23.81-10.629 23.81-23.74 0-13.111-10.66-23.74-23.81-23.74Zm-29.453 10.27c7.443 0 13.475 6.015 13.475 13.435 0 7.42-6.032 13.436-13.475 13.436-7.442 0-13.475-6.016-13.475-13.436s6.033-13.436 13.475-13.436Zm-23.81-16.044h47.62c0-13.112-10.66-23.74-23.81-23.74-13.15 0-23.81 10.628-23.81 23.74Z" fill="#D51E35"/><path fill-rule="evenodd" clip-rule="evenodd" d="M6.99 126.606v-4.497h6.022c.837 0 1.433.241 1.785.712.348.465.513.973.513 1.495 0 .516-.162 1.025-.493 1.525-.337.507-.93.765-1.766.765h-6.06Zm5.027-13.555c.63 0 1.123.156 1.487.469 1.038.892 1.053 1.966.324 2.996-.335.472-.956.694-1.811.694H6.99v-4.159h5.027Zm20.969 4.837c1.877 0 2.952.995 3.213 2.991h-6.657c.278-1.996 1.425-2.991 3.444-2.991Zm-.243-4.82c-2.94 0-5.268.955-6.973 2.86-1.72 1.925-2.578 4.294-2.578 7.112 0 2.926.945 5.289 2.804 7.047 1.864 1.764 4.33 2.653 7.388 2.653 3.04 0 5.606-1.068 7.75-3.192.533-.528.611-1.025.16-1.456l-1.93-1.848c-.405-.388-.821-.398-1.253.035-1.058 1.064-2.453 1.605-4.157 1.605-2.411 0-3.842-1.083-4.276-3.239h11.355c.57 0 .877-.298.956-.865.027-.19.054-.485.054-.917 0-2.955-.851-5.34-2.542-7.124-1.7-1.792-3.961-2.671-6.758-2.671Zm16.832 19.345c.551 0 .83-.298.83-.894V107.35c0-.596-.279-.894-.83-.894h-4.947c-.55 0-.83.298-.83.894v24.169c0 .596.28.894.83.894h4.947Zm29.07.017c2.617 0 4.349-.301 5.763-1.5 1.418-1.203 2.135-2.754 2.135-4.686 0-1.677-.564-2.965-1.682-3.854-3.944-3.136-4.973-1.955-7.677-3.499-.243-.139-.328-.315-.328-.505 0-.541.77-.922 2.04-.922 1.175 0 2.78.813 4.098 1.414 1.36.622 1.874-1.886 2.67-3.158.31-.493.227-.904-.226-1.213-1.831-1.183-4.067-1.778-6.686-1.778-2.48 0-4.42.523-5.821 1.588-1.413 1.058-2.111 2.539-2.111 4.436 0 3.491 2.147 6.035 7.057 6.847.052.008.137.015.227.03 1.603.263 2.29.457 2.29 1.064 0 .63-.859 1.047-2.046 1.047-.733 0-1.59-.148-2.553-.434-.974-.29-1.778-.66-2.463-1.065-.52-.308-1.102-.196-1.389.262l-1.759 2.807c-.772 1.231 5.685 3.118 8.46 3.119Zm59.203-19.58c-2.539 0-4.504.853-6.201 3.167-1.23-2.314-3.283-3.167-5.834-3.167-1.91 0-3.442.871-4.909 2.333l-.213-.975c-.122-.558-.395-.988-.837-.988h-5.105c-.56 0-.837.281-.837.84v17.056c0 .56.275.841.837.841h4.956c.562 0 .838-.28.838-.841v-8.518c0-2.449 1.073-3.655 2.983-3.664 1.663-.007 2.483.803 2.483 2.443v9.739c0 .56.281.841.838.841h4.95c.573 0 .854-.28.854-.841v-8.523c0-2.444 1.057-3.65 2.972-3.659 1.663-.007 2.489.803 2.489 2.443v9.739c0 .56.298.841.854.841h4.951c.556 0 .837-.28.837-.841v-8.852c0-2.577-.626-5.525-1.893-7.083-1.266-1.556-2.922-2.331-5.013-2.331Zm18.381 14.092c-1.002 0-1.902-.343-2.673-1.041-.789-.686-1.18-1.763-1.18-3.233 0-1.475.391-2.553 1.18-3.232.771-.686 1.688-1.023 2.717-1.023 1.035 0 1.935.337 2.723 1.041.772.698 1.164 1.757 1.164 3.178 0 1.469-.392 2.547-1.197 3.25-.8.699-1.706 1.06-2.734 1.06Zm7.533 2.864c1.923-1.794 2.873-4.188 2.873-7.137s-.95-5.343-2.855-7.154c-1.899-1.799-4.403-2.711-7.533-2.711-3.136 0-5.622.912-7.503 2.711-1.886 1.811-2.836 4.205-2.836 7.154s.95 5.343 2.855 7.137c1.88 1.816 4.385 2.727 7.484 2.727 3.092 0 5.597-.911 7.515-2.727Zm-104.964 2.607c.551 0 .83-.298.83-.894V107.35c0-.596-.279-.894-.83-.894H53.85c-.55 0-.83.298-.83.894v24.169c0 .596.28.894.83.894h4.947Zm9.223 0c.551 0 .83-.221.83-.662v-17.915c0-.441-.279-.662-.83-.662h-4.946c-.552 0-.83.221-.83.662v17.915c0 .441.278.662.83.662h4.946Zm0-22.047a3.434 3.434 0 0 0 1.018-2.492c0-.952-.346-1.775-1.018-2.461-.688-.67-1.514-1.01-2.468-1.01-.965 0-1.796.34-2.463 1.01-.688.686-1.034 1.509-1.034 2.461 0 .978.347 1.823 1.034 2.492.667.686 1.498 1.026 2.463 1.026.954 0 1.78-.34 2.468-1.026Zm27.762 22.064c2.617 0 4.349-.301 5.763-1.5 1.418-1.203 2.135-2.754 2.135-4.686 0-1.677-.564-2.965-1.682-3.854-3.944-3.136-4.973-1.955-7.677-3.499-.243-.139-.328-.315-.328-.505 0-.541.77-.922 2.04-.922 1.175 0 2.78.813 4.098 1.414 1.36.622 1.874-1.886 2.671-3.158.309-.493.226-.904-.227-1.213-1.831-1.183-4.067-1.778-6.686-1.778-2.48 0-4.42.523-5.82 1.588-1.414 1.058-2.112 2.539-2.112 4.436 0 3.491 2.147 6.035 7.057 6.847.052.008.137.015.227.03 1.603.263 2.29.457 2.29 1.064 0 .63-.859 1.047-2.046 1.047-.733 0-1.59-.148-2.553-.434-.974-.29-1.778-.66-2.463-1.065-.52-.308-1.102-.196-1.388.262l-1.76 2.807c-.772 1.231 5.685 3.118 8.461 3.119Zm15.279-.017c.551 0 .829-.221.829-.662v-17.915c0-.441-.278-.662-.829-.662h-4.947c-.551 0-.83.221-.83.662v17.915c0 .441.279.662.83.662h4.947Zm0-22.047a3.433 3.433 0 0 0 1.018-2.492c0-.952-.346-1.775-1.018-2.461-.688-.67-1.514-1.01-2.468-1.01-.965 0-1.797.34-2.463 1.01-.688.686-1.034 1.509-1.034 2.461 0 .978.346 1.823 1.034 2.492.666.686 1.498 1.026 2.463 1.026.954 0 1.78-.34 2.468-1.026ZM2.739 145.007v3.426h1.328c.957 0 1.594-.064 1.917-.19.323-.126.576-.322.758-.594.183-.268.275-.579.275-.937 0-.44-.129-.801-.384-1.086a1.687 1.687 0 0 0-.977-.538c-.29-.053-.87-.081-1.746-.081H2.739ZM.297 155v-12.025h3.905c1.48 0 2.442.059 2.891.179.69.182 1.27.574 1.735 1.178.466.605.7 1.386.7 2.343 0 .739-.136 1.358-.402 1.862-.27.504-.61.898-1.022 1.187a3.554 3.554 0 0 1-1.26.568c-.582.115-1.421.173-2.521.173H2.739V155H.297Zm20.7 0v-2.183l6.356-7.81H21.72v-2.032h8.827v1.881l-6.603 8.112H30.8V155h-9.803Zm13.212 0v-2.183l6.356-7.81h-5.631v-2.032h8.826v1.881l-6.603 8.112h6.856V155h-9.804Zm20.675-4.77-1.676-4.45-1.629 4.45h3.305Zm4.463 4.77h-2.63l-1.041-2.737h-4.838L49.836 155h-2.582l4.682-12.025h2.58L59.347 155Zm-45.481-12.193h2.442v12.025h-2.442v-12.025Zm152.82-29.601h.427a.623.623 0 0 0 .212-.028.223.223 0 0 0 .117-.09.248.248 0 0 0 .04-.135.227.227 0 0 0-.077-.175c-.052-.045-.133-.068-.244-.068h-.475v.496Zm1.385-.846a1.298 1.298 0 0 0-1.846 0 1.322 1.322 0 0 0-.384.934c0 .365.147.696.384.935a1.299 1.299 0 0 0 1.846-.001c.236-.239.383-.569.383-.934 0-.365-.147-.695-.383-.934Zm-.923-.681a1.59 1.59 0 0 0-1.134.474c-.29.292-.469.696-.469 1.141a1.615 1.615 0 0 0 1.603 1.616c.443 0 .844-.182 1.134-.475.289-.292.468-.696.468-1.141 0-.445-.179-.849-.468-1.141a1.59 1.59 0 0 0-1.134-.474Zm-.661 2.365v-1.499h.666c.134 0 .236.014.305.04.07.027.125.075.167.143a.419.419 0 0 1 .062.225.375.375 0 0 1-.103.269c-.069.073-.175.119-.32.139a.48.48 0 0 1 .12.075c.058.053.113.12.165.199l.26.409h-.248l-.199-.312a2.387 2.387 0 0 0-.144-.207.425.425 0 0 0-.101-.1.277.277 0 0 0-.09-.04.683.683 0 0 0-.111-.007h-.23v.666h-.199ZM17.431 119.12c2.272-.955 3.395-2.64 3.395-5.078 0-4.603-3.635-6.803-9.971-6.803H1.039c-.649.017-.967.314-.967.901v23.122c0 .587.318.884.967.884h11.873c6.232 0 9.822-2.189 9.822-6.757 0-3.28-1.765-5.361-5.303-6.269Z" fill="#fff"/></svg>