<svg width="235" height="56" fill="none" xmlns="http://www.w3.org/2000/svg"><path d="M99.096 25.122h-7.352v-3.604h6.85V18.75h-6.85V15.6h7.185v-2.72H87.998v15.01h11.097v-2.768ZM126.518 15.6h1.337c2.005 0 2.745.478 2.745 1.742 0 1.122-.597 1.742-2.315 1.742h-1.743l-.024-3.483Zm-3.747-2.72v15.01h3.724v-6.037h2.983c3.485 0 4.964-2.434 4.964-4.534 0-2.052-1.551-4.463-4.988-4.463l-6.683.024ZM141.579 15.6h1.885c1.408 0 2.148.573 2.148 1.695 0 1.288-1.026 1.718-2.052 1.718h-1.981V15.6Zm-3.747-2.72v15.01h3.723v-6.11h1.074c2.005 0 2.601 2.864 4.224 6.11h4.153c-2.124-4.415-2.578-6.276-4.129-7.016 1.719-.787 2.578-2.004 2.578-3.675 0-2.243-1.838-4.319-4.917-4.319h-6.706ZM166.782 25.122h-7.327v-3.604h6.85V18.75h-6.85V15.6h7.208v-2.72h-10.955v15.01h11.074v-2.768ZM182.415 13.81c-1.886-.81-3.413-1.145-5.084-1.145-3.484 0-5.728 1.718-5.728 4.32 0 5.416 7.661 4.485 7.661 6.943 0 .883-.787 1.384-2.196 1.384-1.646 0-2.983-.525-5.155-1.933v3.246c1.48.787 2.793 1.455 5.418 1.455 3.342 0 5.776-1.67 5.776-4.534 0-5.25-7.662-4.605-7.662-6.872 0-.764.86-1.217 2.196-1.217 1.289 0 2.578.382 4.75 1.336l.024-2.982ZM198.286 13.81c-1.885-.81-3.413-1.145-5.083-1.145-3.485 0-5.728 1.718-5.728 4.32 0 5.416 7.661 4.485 7.661 6.943 0 .883-.788 1.384-2.196 1.384-1.647 0-2.983-.525-5.155-1.933v3.246c1.479.787 2.792 1.455 5.418 1.455 3.341 0 5.775-1.67 5.775-4.534 0-5.25-7.661-4.605-7.661-6.872 0-.764.859-1.217 2.196-1.217 1.289 0 2.577.382 4.75 1.336v-2.982h.023ZM220.077 24.811h-4.869c2.697-3.412 4.081-6.013 4.081-7.874 0-2.673-1.814-4.272-4.75-4.272-1.432 0-2.577.382-4.2 1.432v3.126c1.193-1.17 2.554-1.885 3.604-1.885 1.122 0 2.005 1.002 2.005 2.147 0 1.17-.382 2.267-1.623 4.152-1.074 1.647-2.602 3.866-4.177 5.8v.429h9.929V24.81ZM229.91 17.677h.048v4.104h-3.222l3.174-4.104Zm3.365-5.012h-2.124l-7.089 9.116v2.41h5.848v3.675h3.341V24.19h1.027v-2.41h-1.027v-9.116h.024ZM111.053 17.51l-2.983-4.63h-4.248l4.797 7.23-4.965 7.78h4.153l3.246-5.226 3.246 5.226h4.177l-4.988-7.78 4.82-7.23h-4.248l-3.007 4.63ZM219.313 36.242h-.549l-4.917 5.894v-5.894h-1.121v7.85h.525l4.916-5.798v5.656h1.122l.024-7.708Zm-15.514 0v7.731h1.122v-3.675h.31c.74 0 1.504.478 2.172 1.6l1.194 2.1h1.288l-1.36-2.34c-.549-.954-1.146-1.503-1.695-1.765.43-.215.86-.788 1.075-1.36.31-.907.525-1.289 1.503-1.289v-1.002h-.191c-1.098 0-1.695.382-2.22 1.766-.453 1.145-1.002 1.36-1.813 1.36h-.287v-3.15l-1.098.024Zm-6.682 4.319h1.36c1.17 0 1.718.501 1.718 1.193 0 .573-.358 1.217-1.67 1.217h-1.408v-2.41Zm0-3.317h1.026c1.026 0 1.36.501 1.36 1.074 0 .835-.525 1.217-1.647 1.217h-.739v-2.29Zm-1.098 6.73h2.625c1.933 0 2.673-1.122 2.673-2.053 0-1.05-.716-1.813-1.862-2.004v-.024c.812-.334 1.194-.86 1.194-1.67 0-.955-.716-1.98-2.387-1.98h-2.243v7.73Zm-6.134-6.086 1.265 2.816h-2.435l1.17-2.816Zm.382-1.694h-.788l-3.341 7.78h1.122l.954-2.267h3.294l1.026 2.266h1.122l-3.389-7.779Zm-5.704.048h-6.468v1.002h2.673v6.73h1.121V37.22h2.674v-.978Zm-8.64.525c-1.05-.454-1.862-.62-2.673-.62-2.459 0-4.225 1.718-4.225 4.08 0 1.623 1.289 3.865 4.177 3.865 1.193 0 2.029-.286 2.816-.667V42.23c-.859.573-1.837.86-2.721.86-1.861 0-3.126-1.194-3.126-2.96 0-1.694 1.336-2.982 3.079-2.982.883 0 1.718.262 2.673.81v-1.192Zm-16.564 3.34c0-1.694 1.289-2.958 3.007-2.958 1.743 0 3.031 1.264 3.031 2.959 0 1.694-1.288 2.959-3.031 2.959-1.718 0-3.007-1.265-3.007-2.96Zm-1.146 0c0 2.1 1.6 3.985 4.153 3.985 2.602 0 4.201-1.885 4.201-3.984 0-2.172-1.599-3.985-4.153-3.985-2.554.024-4.201 1.837-4.201 3.985Zm-6.229-2.29 1.957 5.178h-3.795l1.838-5.178Zm4.201 5.154h-1.122l-2.673-6.8h-.788l-2.554 6.8h-1.121v2.434h1.121v-1.432h6.039v1.432h1.122v-2.434h-.024Zm-16.802-5.083 1.265 2.816h-2.435l1.17-2.816Zm.405-1.694h-.787l-3.342 7.78h1.122l.955-2.267h3.293l1.027 2.266h1.121l-3.389-7.779Zm-10.215 4.152h1.48c1.145 0 1.718.477 1.718 1.336 0 .716-.573 1.337-1.503 1.337h-1.695v-2.673Zm-1.122 3.627h2.65c1.646 0 2.792-.858 2.792-2.314s-1.146-2.339-2.792-2.339h-1.576v-2.1h3.819v-1.002h-4.94v7.755h.047Zm-8.711-4.605c-.811 0-1.36-.215-1.814-1.36-.549-1.36-1.122-1.766-2.22-1.766h-.19v1.002c1.002 0 1.193.358 1.503 1.289.215.572.716 1.145 1.17 1.36-.621.286-1.027.573-1.504 1.288l-1.862 2.816h1.289l1.504-2.338c.429-.644 1.193-1.337 2.1-1.337v3.675h1.122v-3.699c.859 0 1.671.669 2.1 1.337l1.504 2.338h1.289l-1.862-2.816c-.477-.715-.859-1.002-1.504-1.288.478-.215.955-.811 1.17-1.36.31-.907.525-1.289 1.504-1.289v-.978h-.144c-1.098 0-1.694.382-2.219 1.766-.454 1.145-1.003 1.36-1.814 1.36v-3.15h-1.122v3.15Zm-13.007-3.126h-1.122L109 43.997c-.048.525-.597.86-.883.86-.454 0-.788-.096-1.026-.359v1.003c.262.166.596.286.954.286.883 0 1.456-.525 1.934-1.766l2.887-7.755h-1.098l-2.267 6.466-2.768-6.49Zm-5.943-.048h-.788l-3.341 7.78h1.121l2.578-6.3 2.745 6.3h1.121l-3.436-7.78Zm-6.11.573c-1.05-.454-1.862-.62-2.673-.62-2.459 0-4.225 1.718-4.225 4.08 0 1.623 1.289 3.865 4.177 3.865 1.193 0 2.029-.286 2.816-.667V42.23c-.86.573-1.838.86-2.697.86-1.861 0-3.126-1.194-3.126-2.96 0-1.694 1.336-2.982 3.079-2.982.882 0 1.718.262 2.673.81v-1.192h-.024Z" fill="#fff"/><path d="M40.526.4c15.346 0 27.805 12.457 27.805 27.8 0 15.344-12.459 27.8-27.805 27.8S12.721 43.544 12.721 28.2C12.745 12.833 25.18.4 40.526.4Z" fill="#FFEC00"/><path d="M40.526 44.212C18.14 44.212.024 37.315.024 33.235c0-4.104 9.499-6.681 23.199-9.306-.024.763-.024 1.503-.024 2.267.573 3.006 8.067 4.605 17.351 4.605 9.284 0 16.779-1.694 17.351-4.605 0-.764 0-1.504-.024-2.267 13.676 2.6 23.199 5.226 23.199 9.306-.024 4.08-18.163 10.977-40.55 10.977Z" fill="#8CC798"/><path d="M56.278 43.066c-3.604 3.317-9.308 5.465-15.752 5.465-6.42 0-12.148-2.148-15.728-5.465a108.003 108.003 0 0 0 15.728 1.146c5.585 0 10.931-.43 15.752-1.146Z" fill="#8CC798"/><path d="M40.168 48.53c-6.277-.07-11.838-2.195-15.346-5.464 2.53.358 5.203.645 7.971.86.501.715 2.507 3.125 7.375 4.605Z" fill="#4FA26C"/><path d="M40.55 7.845c-9.046 0-16.684 7.04-17.328 16.084v.859c.501 2.553 8.067 4.605 17.351 4.605 9.285 0 16.85-2.004 17.352-4.605l-.024-.836c-.669-9.043-8.306-16.107-17.352-16.107Z" fill="#009DE2"/><path d="m52.602 28.034.168-.024c1.455-.382 4.797-1.456 5.155-3.198l-.024-.835c-.43-5.918-3.914-11.287-9.26-14.103-.263-.119-.43-.238-.788-.381.262.214 4.773 3.89 4.773 12.647v5.894h-.024Z" fill="#A0D8F7"/><path d="M23.222 24.812v1.407c.573 3.008 8.067 4.606 17.351 4.606 9.285 0 16.779-1.694 17.352-4.605v-1.408c-.502 2.553-8.067 4.605-17.352 4.605-9.284 0-16.873-2.052-17.35-4.605ZM40.55 34.667a2.796 2.796 0 0 1 2.793 2.792v.023c-.788.383-1.743.597-2.793.597s-2.005-.215-2.793-.597v-.023a2.812 2.812 0 0 1 2.793-2.792Z" fill="#FFEC00"/><path d="M37.757 37.507v-.072c.024-1.217.86-2.243 1.957-2.6l.072-.025.072-.024.047-.023h.024l.048-.024h.048l.071-.024.048-.024h.263c-.024.024-1.218.716-1.432 2.005-.072.429-.072.835-.072 1.193a5.874 5.874 0 0 1-1.146-.382Z" fill="#FFCB00"/><path d="M43.342 37.507v.81c-.787.382-1.742.598-2.792.598-1.05 0-2.005-.216-2.793-.597v-.811c.788.381 1.742.596 2.793.596 1.026 0 2.029-.238 2.792-.596Z" fill="#EE7C00"/><path d="M24.774 33.235a2.795 2.795 0 0 1 2.792 2.792v.024c-.787.382-1.742.596-2.792.596-1.05 0-2.005-.214-2.793-.596v-.024c-.023-1.527 1.265-2.792 2.793-2.792Z" fill="#FFEC00"/><path d="M21.957 36.05v-.07c.024-1.218.86-2.244 1.958-2.602l.071-.024.072-.024.047-.024h.025l.047-.023h.048l.072-.024h.31c-.024.024-1.217.716-1.432 2.004-.072.43-.072.836-.072 1.194-.405-.12-.811-.24-1.146-.406Z" fill="#FFCB00"/><path d="M27.566 36.051v.811c-.787.382-1.742.597-2.792.597-1.05 0-2.005-.215-2.793-.597v-.811c.788.382 1.743.596 2.793.596a6.158 6.158 0 0 0 2.792-.596Z" fill="#EE7C00"/><path d="M55.515 33.235a2.796 2.796 0 0 1 2.792 2.792v.024c-.787.382-1.742.596-2.792.596-1.05 0-2.005-.214-2.792-.596v-.024a2.81 2.81 0 0 1 2.792-2.792Z" fill="#FFEC00"/><path d="M52.723 36.05v-.07c.024-1.218.859-2.244 1.957-2.602l.071-.024.072-.024.048-.024h.024l.047-.023h.048l.072-.024h.31c-.024.024-1.217.716-1.432 2.004-.072.43-.072.836-.072 1.194a7.167 7.167 0 0 1-1.145-.406Z" fill="#FFCB00"/><path d="M58.307 36.051v.811c-.787.382-1.742.597-2.792.597-1.05 0-2.005-.215-2.792-.597v-.811c.787.382 1.742.596 2.792.596 1.05.024 2.029-.214 2.792-.596Z" fill="#EE7C00"/><path d="M66.183 28.82a2.796 2.796 0 0 1 2.792 2.792v.024c-.787.382-1.742.596-2.792.596-1.05 0-2.005-.214-2.792-.596v-.024a2.796 2.796 0 0 1 2.792-2.792Z" fill="#FFEC00"/><path d="M63.39 31.636v-.072c.025-1.216.86-2.242 1.958-2.6l.071-.024.072-.024.048-.024h.024l.047-.024h.024l.072-.024.047-.024h.263c-.024.024-1.217.716-1.432 2.005-.072.43-.072.835-.072 1.193a4.77 4.77 0 0 1-1.121-.382Z" fill="#FFCB00"/><path d="M68.975 31.637v.811c-.787.382-1.742.596-2.792.596-1.05 0-2.005-.214-2.792-.596v-.811c.787.382 1.742.596 2.792.596a6.093 6.093 0 0 0 2.792-.596Z" fill="#EE7C00"/><path d="M3.017 29.568c3.318-1.861 9.227-3.42 16.578-4.924 1.218-.238 2.459-.501 3.652-.716V24c-.024.74-.024 1.48-.024 2.22.501 2.6 6.277 4.151 13.867 4.485.835.048 1.695.09 2.553.114-9.904.048-17.4.357-33.892 5.2-3.605-1.932-5.025-4.16-2.734-6.45Z" fill="#4FA26C"/><path d="M40.526 44.212c-20.573 0-37.59-5.823-40.168-9.927C.214 34.052 0 33.704 0 33.283c0-1.384 1.06-2.64 3.017-3.715-6.683 6.682 17.819 12.687 37.485 12.687s44.106-6.013 37.447-12.647c1.957 1.098 3.055 2.314 3.055 3.675 0 .048 0 .095-.024.119-.023.263-.12.549-.334.883-2.53 4.104-19.523 9.927-40.12 9.927Z" fill="#006126"/><path d="M14.416 28.82a2.796 2.796 0 0 1 2.792 2.792v.024c-.787.382-1.742.596-2.792.596-1.05 0-2.005-.214-2.793-.596v-.024a2.796 2.796 0 0 1 2.793-2.792Z" fill="#FFEC00"/><path d="M11.623 31.636v-.072c.025-1.216.86-2.242 1.958-2.6l.071-.024.072-.024.048-.024h.024l.047-.024H13.915l.071-.024.048-.024h.286c-.023.024-1.217.716-1.432 2.005-.071.43-.071.835-.071 1.193-.502-.095-.86-.215-1.194-.382Z" fill="#FFCB00"/><path d="M17.208 31.637v.811c-.787.382-1.742.596-2.792.596-1.05 0-2.005-.214-2.793-.596v-.811c.788.382 1.743.596 2.793.596a6.094 6.094 0 0 0 2.792-.596Z" fill="#EE7C00"/></svg>