<svg width="20" height="20" viewBox="0 0 20 20" fill="none" xmlns="http://www.w3.org/2000/svg">
<path d="M5.14102 15C5.31318 14.5121 5.63247 14.0896 6.05485 13.7907C6.47723 13.4918 6.98192 13.3313 7.49935 13.3313C8.01678 13.3313 8.52147 13.4918 8.94385 13.7907C9.36623 14.0896 9.68551 14.5121 9.85768 15H18.3327V16.6667H9.85768C9.68551 17.1547 9.36623 17.5772 8.94385 17.8761C8.52147 18.1749 8.01678 18.3354 7.49935 18.3354C6.98192 18.3354 6.47723 18.1749 6.05485 17.8761C5.63247 17.5772 5.31318 17.1547 5.14102 16.6667H1.66602V15H5.14102ZM10.141 9.16672C10.3132 8.67877 10.6325 8.25624 11.0548 7.95737C11.4772 7.6585 11.9819 7.49801 12.4993 7.49801C13.0168 7.49801 13.5215 7.6585 13.9438 7.95737C14.3662 8.25624 14.6855 8.67877 14.8577 9.16672H18.3327V10.8334H14.8577C14.6855 11.3213 14.3662 11.7439 13.9438 12.0427C13.5215 12.3416 13.0168 12.5021 12.4993 12.5021C11.9819 12.5021 11.4772 12.3416 11.0548 12.0427C10.6325 11.7439 10.3132 11.3213 10.141 10.8334H1.66602V9.16672H10.141ZM5.14102 3.33338C5.31318 2.84544 5.63247 2.42291 6.05485 2.12404C6.47723 1.82517 6.98192 1.66467 7.49935 1.66467C8.01678 1.66467 8.52147 1.82517 8.94385 2.12404C9.36623 2.42291 9.68551 2.84544 9.85768 3.33338H18.3327V5.00005H9.85768C9.68551 5.48799 9.36623 5.91052 8.94385 6.20939C8.52147 6.50826 8.01678 6.66876 7.49935 6.66876C6.98192 6.66876 6.47723 6.50826 6.05485 6.20939C5.63247 5.91052 5.31318 5.48799 5.14102 5.00005H1.66602V3.33338H5.14102ZM7.49935 5.00005C7.72036 5.00005 7.93232 4.91225 8.0886 4.75597C8.24488 4.59969 8.33268 4.38773 8.33268 4.16671C8.33268 3.9457 8.24488 3.73374 8.0886 3.57746C7.93232 3.42118 7.72036 3.33338 7.49935 3.33338C7.27834 3.33338 7.06637 3.42118 6.91009 3.57746C6.75381 3.73374 6.66602 3.9457 6.66602 4.16671C6.66602 4.38773 6.75381 4.59969 6.91009 4.75597C7.06637 4.91225 7.27834 5.00005 7.49935 5.00005ZM12.4993 10.8334C12.7204 10.8334 12.9323 10.7456 13.0886 10.5893C13.2449 10.433 13.3327 10.2211 13.3327 10C13.3327 9.77903 13.2449 9.56707 13.0886 9.41079C12.9323 9.25451 12.7204 9.16672 12.4993 9.16672C12.2783 9.16672 12.0664 9.25451 11.9101 9.41079C11.7538 9.56707 11.666 9.77903 11.666 10C11.666 10.2211 11.7538 10.433 11.9101 10.5893C12.0664 10.7456 12.2783 10.8334 12.4993 10.8334ZM7.49935 16.6667C7.72036 16.6667 7.93232 16.5789 8.0886 16.4226C8.24488 16.2664 8.33268 16.0544 8.33268 15.8334C8.33268 15.6124 8.24488 15.4004 8.0886 15.2441C7.93232 15.0878 7.72036 15 7.49935 15C7.27834 15 7.06637 15.0878 6.91009 15.2441C6.75381 15.4004 6.66602 15.6124 6.66602 15.8334C6.66602 16.0544 6.75381 16.2664 6.91009 16.4226C7.06637 16.5789 7.27834 16.6667 7.49935 16.6667Z" fill="white"/>
</svg>
