<svg width="233" height="38" fill="none" xmlns="http://www.w3.org/2000/svg"><path fill-rule="evenodd" clip-rule="evenodd" d="M137.717 25.305V12.108l7.985-.06c1.11-.008 2.102.037 2.973.1a9.829 9.829 0 0 1 1.796.28 6.392 6.392 0 0 1 1.383.514c.378.205.7.433.958.684.262.25.469.544.631.884.157.336.25.7.277 1.086a3.23 3.23 0 0 1-.137 1.214c-.12.377-.325.733-.621 1.063-.293.333-.671.62-1.134.86-.461.242-1.119.49-1.972.74l3.95 5.71h-5.426l-4.542-7.283c.476.062 1.05.075 1.503.075.631 0 1.329-.005 1.834-.147.505-.142.64-.407.885-.705.241-.296.353-.606.328-.937a1.092 1.092 0 0 0-.349-.729c-.214-.21-.541-.366-.978-.469-.434-.102-1.099-.155-1.991-.155-.307 0-.618.005-.946.013l-1 .027.134 10.432h-5.541ZM75.86 12.26h7.063l2.727 7.978 2.714-7.977h7.038v13.113h-4.385v-9.999l-3.402 9.998h-3.968l-3.389-9.998v9.998h-4.397V12.261ZM67.73 23.209h-6.116l-.842 2.165h-5.484l6.529-13.113h5.852l6.533 13.113h-5.619l-.853-2.165Zm-1.124-2.836-1.922-4.714-1.91 4.714h3.832ZM36.847 12.26h5.368v4.59h5.869v-4.59h5.392v13.114h-5.392V20.07h-5.869v5.302h-5.368V12.261ZM98.817 12.264h5.444v13.013h-5.444V12.264Zm5.651 6.147c1.766-2.03 3.583-4.043 5.201-6.147 1.994.017 3.984.014 5.978 0l-5.692 6.098 6.459 6.915a411.763 411.763 0 0 0-6.297 0c-1.151-1.546-3.035-3.834-5.649-6.866ZM123.992 15.254c-1.431 0-2.602 1.039-2.602 2.309v2.192c0 1.269 1.171 2.308 2.602 2.308h4.125c1.43 0 2.601-1.04 2.601-2.308v-2.192c0-1.27-1.171-2.309-2.601-2.309h-4.125Zm-1.962-3.238h8.049c2.792 0 5.076 2.027 5.076 4.504v4.277c0 2.477-2.284 4.504-5.076 4.504h-8.049c-2.792 0-5.076-2.027-5.076-4.504V16.52c0-2.477 2.284-4.504 5.076-4.504ZM193.879 12.26h5.016l6.54 7.255v-7.254h5.06v13.113h-5.06l-6.507-7.2v7.2h-5.049V12.26ZM185.656 23.209h-6.116l-.841 2.165h-5.485l6.529-13.113h5.853l6.533 13.113h-5.619l-.854-2.165Zm-1.124-2.836-1.922-4.714-1.908 4.714h3.83ZM156.517 12.26h10.051c1.675 0 2.959.316 3.855.942.897.626 1.346 1.4 1.346 2.323 0 .775-.318 1.441-.958 1.996-.428.37-1.052.663-1.873.877 1.246.226 2.167.614 2.755 1.166.588.55.881 1.246.881 2.078 0 .681-.209 1.293-.626 1.836-.419.544-.991.971-1.719 1.288-.449.196-1.129.339-2.039.428-1.209.118-2.011.18-2.406.18h-9.267V12.26Zm5.415 5.145h2.334c.838 0 1.422-.107 1.751-.327.33-.217.49-.534.49-.942a1.01 1.01 0 0 0-.49-.895c-.33-.216-.902-.324-1.714-.324h-2.371v2.488Zm0 5.151h2.739c.926 0 1.577-.123 1.954-.37.379-.248.569-.58.569-.998 0-.387-.185-.699-.562-.934-.376-.235-1.031-.354-1.973-.354h-2.727v2.656ZM213.483 12.264h5.444v13.013h-5.444V12.264Zm5.651 6.147c1.768-2.03 3.584-4.043 5.203-6.147 1.994.017 3.982.014 5.977 0l-5.692 6.098 6.459 6.915c-2.1-.014-4.197-.018-6.297 0-1.152-1.546-3.035-3.834-5.65-6.866ZM10.492 7.205h9.15L9.153 32.62H0L10.492 7.205ZM23.52.713h9.15L22.18 26.128h-9.152L23.519.713ZM120.105 37.26h1.416c.244 0 .414-.008.514-.026.172-.03.317-.08.433-.15a.799.799 0 0 0 .287-.308.932.932 0 0 0 .113-.466.891.891 0 0 0-.164-.536.855.855 0 0 0-.452-.321c-.192-.063-.471-.093-.832-.093h-1.315v1.9Zm0-2.547h1.23c.333 0 .572-.02.717-.064a.799.799 0 0 0 .433-.275.782.782 0 0 0 .145-.481.858.858 0 0 0-.137-.485.681.681 0 0 0-.387-.287c-.167-.05-.456-.076-.864-.076h-1.137v1.668Zm-.753 3.194v-5.51h2.132c.434 0 .782.056 1.045.167.262.112.468.284.616.516.149.23.223.473.223.727 0 .235-.066.457-.197.665a1.397 1.397 0 0 1-.595.503c.344.098.609.265.792.5.186.236.278.514.278.834 0 .259-.056.5-.169.721a1.398 1.398 0 0 1-.417.513c-.165.12-.373.21-.622.272a3.892 3.892 0 0 1-.919.092h-2.167ZM124.805 32.398h.754v5.51h-.754v-5.51ZM127.653 34.83h1.615c.344 0 .611-.036.804-.105a.827.827 0 0 0 .439-.33.87.87 0 0 0 .151-.494.816.816 0 0 0-.291-.644c-.195-.168-.502-.252-.92-.252h-1.798v1.824Zm-.754 3.077v-5.51h2.52c.506 0 .891.05 1.155.149.263.1.473.273.631.524.157.25.235.527.235.83 0 .39-.131.72-.392.988-.261.269-.662.438-1.207.51a2 2 0 0 1 .454.275c.22.195.427.44.621.734l.983 1.5h-.939l-.752-1.147a10.475 10.475 0 0 0-.54-.76 1.723 1.723 0 0 0-.383-.368 1.152 1.152 0 0 0-.343-.146 2.362 2.362 0 0 0-.418-.026h-.871v2.447h-.754ZM135.276 35.746v-.647h2.406v2.041c-.37.285-.75.5-1.144.645a3.486 3.486 0 0 1-1.209.215 3.304 3.304 0 0 1-1.522-.348c-.455-.23-.8-.566-1.032-1.005a3.077 3.077 0 0 1-.349-1.468c0-.535.116-1.036.346-1.5.232-.465.565-.81.998-1.035.434-.226.935-.338 1.5-.338.411 0 .783.064 1.116.194.331.13.593.308.78.538.189.23.332.532.43.902l-.679.18c-.086-.279-.192-.5-.318-.662a1.296 1.296 0 0 0-.542-.385 2.059 2.059 0 0 0-.782-.144c-.343 0-.639.051-.891.153a1.66 1.66 0 0 0-.606.401 1.904 1.904 0 0 0-.357.546 2.83 2.83 0 0 0-.217 1.11c0 .493.087.904.261 1.236.174.33.429.577.761.737.333.161.686.242 1.062.242.325 0 .642-.062.951-.184.31-.123.545-.252.705-.392v-1.032h-1.668ZM139.805 35.646h1.936l-.592-1.528a18.637 18.637 0 0 1-.408-1.15c-.078.358-.182.71-.313 1.06l-.623 1.618Zm-1.636 2.261 2.18-5.509h.828l2.313 5.51h-.855l-.658-1.67h-2.394l-.616 1.67h-.798ZM144.056 37.908v-5.51h.754v4.863h2.795v.647h-3.549ZM148.63 32.398h.753v5.51h-.753v-5.51ZM150.677 37.908v-5.51h.754v2.731l2.824-2.731h1.018l-2.384 2.235 2.487 3.275h-.992l-2.023-2.781-.93.873v1.908h-.754ZM156.758 37.26h1.212c.374 0 .668-.032.881-.1.213-.069.383-.163.51-.287.177-.173.315-.406.415-.699a3.33 3.33 0 0 0 .15-1.062c0-.577-.098-1.022-.293-1.332-.194-.31-.431-.517-.711-.623-.2-.076-.524-.112-.972-.112h-1.192v4.216Zm-.754.647v-5.51h1.958c.442 0 .779.027 1.012.08.326.073.603.205.834.394.3.246.524.56.672.941.149.382.223.82.223 1.311 0 .418-.049.788-.15 1.112-.101.324-.231.59-.388.803a2.05 2.05 0 0 1-.519.5 2.113 2.113 0 0 1-.677.276 3.974 3.974 0 0 1-.914.093h-2.051ZM162.749 35.646h1.938l-.593-1.528a18.637 18.637 0 0 1-.408-1.15c-.077.358-.182.71-.313 1.06l-.624 1.618Zm-1.635 2.261 2.18-5.509h.828l2.313 5.51h-.855l-.658-1.67h-2.394l-.616 1.67h-.798ZM170.26 37.908v-2.334l-2.192-3.176h.906l1.123 1.668c.209.309.404.617.581.927.173-.29.383-.613.629-.972l1.1-1.623h.878l-2.271 3.176v2.334h-.754ZM177.676 32.398h.754v3.182c0 .554-.064.994-.193 1.32-.129.325-.362.59-.699.793-.337.205-.778.307-1.326.307-.53 0-.965-.088-1.302-.267a1.535 1.535 0 0 1-.724-.772c-.144-.338-.218-.798-.218-1.381v-3.182h.755v3.18c0 .48.046.834.137 1.059.092.227.248.402.471.524.222.124.495.185.817.185.55 0 .943-.121 1.177-.364.235-.244.351-.71.351-1.404v-3.18ZM179.654 37.908v-5.51h.755v2.731l2.823-2.731h1.018l-2.383 2.235 2.487 3.275h-.992l-2.024-2.781-.929.873v1.908h-.755ZM184.734 36.138l.707-.062c.034.277.112.504.235.682.122.177.313.321.571.431.258.109.549.165.873.165.286 0 .539-.041.759-.126.219-.082.382-.196.489-.342a.781.781 0 0 0 .162-.472.696.696 0 0 0-.155-.45c-.103-.13-.274-.236-.512-.325-.153-.057-.489-.146-1.012-.267-.523-.123-.889-.237-1.097-.345-.272-.139-.473-.31-.605-.514a1.222 1.222 0 0 1-.2-.686c0-.28.082-.54.245-.78.163-.244.4-.427.713-.553a2.777 2.777 0 0 1 1.043-.188c.42 0 .792.065 1.113.197.323.132.57.325.744.581.173.256.265.545.279.869l-.724.054c-.038-.349-.169-.612-.392-.788-.224-.178-.555-.267-.991-.267-.456 0-.787.08-.995.242-.208.162-.312.357-.312.585 0 .197.074.36.22.488.146.128.523.26 1.134.393.612.135 1.032.252 1.259.352.329.147.574.333.731.56.158.225.236.486.236.781 0 .294-.086.569-.259.827-.174.26-.421.46-.745.605a2.67 2.67 0 0 1-1.095.215c-.513 0-.943-.073-1.29-.219a1.78 1.78 0 0 1-.816-.654 1.818 1.818 0 0 1-.313-.99ZM191.288 35.646h1.937l-.592-1.528a18.637 18.637 0 0 1-.408-1.15c-.078.358-.182.71-.313 1.06l-.624 1.618Zm-1.635 2.261 2.18-5.509h.828l2.313 5.51h-.855l-.658-1.67h-2.393l-.617 1.67h-.798ZM195.541 37.908v-5.51h.754v4.863h2.794v.647h-3.548ZM200.115 32.398h.755v5.51h-.755v-5.51ZM201.947 36.138l.706-.062c.034.277.112.504.235.682.123.177.313.321.571.431.258.109.55.165.873.165.287 0 .539-.041.759-.126.219-.082.382-.196.489-.342a.775.775 0 0 0 .162-.472.696.696 0 0 0-.155-.45c-.103-.13-.274-.236-.512-.325-.153-.057-.489-.146-1.012-.267-.523-.123-.888-.237-1.097-.345a1.53 1.53 0 0 1-.605-.514 1.221 1.221 0 0 1-.199-.686c0-.28.081-.54.244-.78.163-.244.4-.427.713-.553a2.778 2.778 0 0 1 1.044-.188c.42 0 .791.065 1.112.197.323.132.57.325.744.581.173.256.265.545.279.869l-.723.054c-.039-.349-.169-.612-.393-.788-.224-.178-.555-.267-.991-.267-.455 0-.787.08-.995.242-.208.162-.312.357-.312.585 0 .197.074.36.22.488.146.128.523.26 1.134.393.613.135 1.032.252 1.259.352.33.147.574.333.732.56.157.225.235.486.235.781 0 .294-.085.569-.259.827-.174.26-.421.46-.745.605a2.669 2.669 0 0 1-1.094.215c-.514 0-.944-.073-1.29-.219a1.782 1.782 0 0 1-.817-.654 1.809 1.809 0 0 1-.312-.99ZM207.521 37.908v-5.51h.753v2.27h2.938v-2.27h.754v5.51h-.754v-2.593h-2.938v2.593h-.753ZM215.181 36.138l.706-.062c.033.277.112.504.235.682.122.177.313.321.57.431.259.109.551.165.874.165.287 0 .539-.041.759-.126.219-.082.382-.196.489-.342a.775.775 0 0 0 .162-.472.702.702 0 0 0-.155-.45c-.103-.13-.274-.236-.512-.325-.152-.057-.49-.146-1.013-.267-.522-.123-.887-.237-1.096-.345-.271-.139-.473-.31-.606-.514a1.23 1.23 0 0 1-.199-.686c0-.28.083-.54.245-.78.162-.244.399-.427.713-.553a2.773 2.773 0 0 1 1.043-.188c.421 0 .792.065 1.114.197.321.132.569.325.742.581.173.256.266.545.279.869l-.722.054c-.038-.349-.17-.612-.394-.788-.223-.178-.554-.267-.99-.267-.455 0-.788.08-.995.242-.208.162-.313.357-.313.585 0 .197.075.36.222.488.145.128.522.26 1.133.393.612.135 1.031.252 1.259.352.33.147.574.333.732.56.157.225.235.486.235.781 0 .294-.086.569-.259.827-.174.26-.421.46-.745.605a2.677 2.677 0 0 1-1.095.215c-.513 0-.942-.073-1.29-.219a1.787 1.787 0 0 1-1.128-1.643ZM221.735 35.646h1.937l-.592-1.528c-.18-.464-.314-.848-.409-1.15-.077.358-.181.71-.313 1.06l-.623 1.618Zm-1.636 2.261 2.181-5.509h.828l2.313 5.51h-.855l-.658-1.67h-2.394l-.616 1.67h-.799ZM226.788 34.83h1.614c.344 0 .611-.036.805-.105a.835.835 0 0 0 .439-.33.87.87 0 0 0 .151-.494.814.814 0 0 0-.292-.644c-.194-.168-.501-.252-.92-.252h-1.797v1.824Zm-.754 3.077v-5.51h2.519c.507 0 .892.05 1.155.149.263.1.473.273.631.524.158.25.235.527.235.83 0 .39-.131.72-.391.988-.261.269-.663.438-1.208.51.2.093.351.186.454.275.219.195.428.44.622.734l.983 1.5h-.94l-.751-1.147a10.09 10.09 0 0 0-.542-.76 1.722 1.722 0 0 0-.381-.368 1.163 1.163 0 0 0-.343-.146 2.375 2.375 0 0 0-.419-.026h-.87v2.447h-.754ZM231.878 32.398h.754v5.51h-.754v-5.51Z" fill="#fff"/></svg>