<svg width="32" height="32" fill="none" xmlns="http://www.w3.org/2000/svg"><path d="M16 2.667c3.622 0 4.075.013 5.496.08 1.42.067 2.387.29 3.237.62a6.5 6.5 0 0 1 2.363 1.537 6.545 6.545 0 0 1 1.537 2.363c.33.85.553 1.817.62 3.237.063 1.422.08 1.874.08 5.496 0 3.623-.013 4.075-.08 5.496-.067 1.42-.29 2.387-.62 3.238a6.51 6.51 0 0 1-1.537 2.362 6.553 6.553 0 0 1-2.363 1.538c-.85.329-1.817.553-3.237.62-1.421.062-1.873.08-5.496.08s-4.075-.014-5.496-.08c-1.42-.067-2.387-.291-3.237-.62a6.52 6.52 0 0 1-2.363-1.538 6.539 6.539 0 0 1-1.538-2.362c-.33-.85-.553-1.818-.62-3.238-.062-1.421-.08-1.873-.08-5.496 0-3.622.014-4.074.08-5.496.067-1.421.29-2.386.62-3.237a6.507 6.507 0 0 1 1.538-2.363 6.53 6.53 0 0 1 2.362-1.537c.851-.33 1.816-.553 3.238-.62 1.421-.063 1.873-.08 5.496-.08Zm0 6.667a6.666 6.666 0 1 0 0 13.332 6.666 6.666 0 0 0 0-13.332ZM24.666 9a1.667 1.667 0 1 0-3.333 0 1.667 1.667 0 0 0 3.334 0ZM16 12a4 4 0 1 1 0 8.001 4 4 0 0 1 0-8Z" fill="#fff"/></svg>