<svg width="151" height="112" fill="none" xmlns="http://www.w3.org/2000/svg"><path fill-rule="evenodd" clip-rule="evenodd" d="m129.01 110.37 7.507-16.457c1.001-2.444-2.414-3.857-3.592-1.62l-2.62 5.918-3.327 7.772-3.385-7.772-2.62-5.918c-1.296-2.444-4.77-.53-3.622 1.796l7.772 16.281c1.119 2.296 3.21 1.855 3.887 0Zm-17.989-8.98c0-4.651-3.621-6.977-7.007-6.977-3.297 0-6.889 2.326-6.889 6.977 0 4.622 3.592 6.978 6.889 6.978 3.386 0 7.007-2.356 7.007-6.978Zm3.857 0c0 6.978-5.388 10.599-10.54 10.599-5.447.236-11.1-3.385-11.1-10.599 0-7.242 5.653-10.805 11.1-10.805 5.152.266 10.54 3.828 10.54 10.805Zm-34.093 10.305c12.896 0 13.19-20.373-.264-20.373h-6.742c-.972 0-2.032.765-2.032 1.825v16.722c0 1.296 1.06 1.826 2.032 1.826h7.007Zm-.264-16.781c8.302 0 7.949 13.189 0 13.189h-4.888v-13.19h4.888Zm-14.014 16.781c2.885 0 2.679-3.857 0-3.857h-8.98v-4.416h7.42c2.62 0 2.62-3.857 0-3.857h-7.42V95.15h8.48c2.649 0 2.708-3.827 0-3.827h-10.57c-1.03 0-1.825.765-1.825 1.825v16.722c0 1.031.795 1.826 1.825 1.826h11.07Zm-28.852-6.742c.971 1.295 2.296 1.295 3.356 0l4.887-6.183v10.893c0 1.295.825 2.032 1.885 2.032.942 0 1.766-.737 1.766-2.032V93.088c0-2.031-2.385-2.502-3.356-1.295l-6.712 9.067-6.478-8.743c-.5-.56-1-1.06-1.854-1.06-.472 0-1.767.5-1.767 2.031v16.575c0 1.295.824 2.032 1.767 2.032 1.06 0 2.12-.737 2.12-2.032V98.77l4.386 6.183ZM0 109.663c0 1.295.942 2.032 2.002 2.032 1.06 0 1.855-.737 1.855-2.032V98.299l9.745 12.365c.853.795 1.354 1.031 2.384 1.031.766-.236 1.56-.737 1.56-2.032V93.088c0-.971-1.03-2.031-2.09-2.031-1 0-1.854 1.06-1.854 2.031v11.423L3.857 92.323c-.795-.766-1.03-1.03-2.09-1.03-1.531 0-1.767 1.03-1.767 2.09v16.28ZM20.599 92.337c-1.014 1.8 2.02 3.37 2.974 1.674l2.526-4.487c.896-1.592-2.064-3.292-2.974-1.675l-2.526 4.488ZM117.244.563c-12.316 0-24.632.102-36.948.055-40.513-.15-40.86 42.326-69.663 57.243h33.846c51.08 0 43.502-45.528 72.765-57.298Z" fill="#fff"/><path fill-rule="evenodd" clip-rule="evenodd" d="M150.186 15.109c-9.184 0-33.218.056-49.956.066C89.688 30.417 84.02 50.988 58.631 56.47c25.387-5.484 31.056-26.054 41.598-41.296-5.709.003-10.57.001-13.703-.01-30.783-.115-38.38 24.38-52.887 42.697h.001c-4.585 5.789-9.859 10.963-16.776 14.545h60.558c51.08 0 43.502-45.528 72.764-57.298Z" fill="#D1AA67"/></svg>