<svg width="182" height="151" fill="none" xmlns="http://www.w3.org/2000/svg"><path fill-rule="evenodd" clip-rule="evenodd" d="M.264 125.466c0-.423.203-.635.61-.635h2.018c.136 0 .271.034.407.103.136.069.253.2.352.395l9.218 16.861.592 1.632-.185-1.649-.148-16.707c0-.183.052-.334.157-.456.105-.119.262-.179.472-.179h2.073c.173 0 .315.049.426.146.11.097.167.255.167.473v23.248c0 .412-.216.618-.648.618h-1.962c-.136 0-.277-.031-.426-.094-.148-.063-.265-.192-.352-.386l-9.162-16.622-.648-1.682.204 1.7.11 16.449c0 .424-.197.635-.591.635H.874c-.407 0-.61-.211-.61-.635v-23.215ZM35.764 148.664c.075.195.066.352-.028.472s-.234.18-.421.18H32.9a.92.92 0 0 1-.411-.102c-.138-.069-.231-.201-.28-.395l-1.255-4.513h-8.085l-1.235 4.513c-.05.194-.144.326-.281.395a.918.918 0 0 1-.412.102h-2.414c-.188 0-.325-.06-.412-.18-.088-.12-.1-.277-.037-.472l7.13-23.301c.063-.195.153-.332.272-.412a.703.703 0 0 1 .402-.12h2.077c.15 0 .288.04.412.12.125.08.218.217.281.412l7.112 23.301Zm-12.09-7.241h6.494l-2.957-10.741-.28-1.819-.281 1.819-2.976 10.741ZM45.433 125.481c0-.241.059-.41.178-.506a.58.58 0 0 1 .373-.144h2.135c.237 0 .4.063.49.189.089.127.133.304.133.532l-.018 19.066c0 .962-.163 1.833-.489 2.615a5.984 5.984 0 0 1-1.325 1.993 5.88 5.88 0 0 1-1.976 1.272 6.57 6.57 0 0 1-2.437.451 6.835 6.835 0 0 1-2.66-.532c-.848-.355-1.545-.833-2.09-1.434a1.306 1.306 0 0 1-.285-.469c-.071-.193-.024-.373.142-.541l1.157-1.371c.166-.169.329-.235.489-.198.16.036.306.125.436.27.26.252.62.496 1.077.731.456.234.98.351 1.574.351.45 0 .865-.087 1.245-.261.38-.174.706-.418.979-.731s.486-.691.64-1.136c.154-.446.232-.932.232-1.461v-18.686ZM53.744 133.649c0-1.15.168-2.239.504-3.261a7.83 7.83 0 0 1 1.501-2.695c.666-.773 1.493-1.382 2.483-1.83.988-.448 2.136-.672 3.443-.672 1.294 0 2.437.224 3.426.672a7.309 7.309 0 0 1 2.499 1.822 7.7 7.7 0 0 1 1.529 2.686c.341 1.023.512 2.109.512 3.261v8.877c0 1.15-.17 2.237-.512 3.261a7.763 7.763 0 0 1-1.52 2.685c-.671.768-1.504 1.375-2.5 1.822-.994.448-2.14.672-3.434.672-1.295 0-2.434-.224-3.417-.672a7.22 7.22 0 0 1-2.482-1.822 7.759 7.759 0 0 1-1.52-2.685 10.23 10.23 0 0 1-.512-3.261v-8.86Zm3.327 9.069c0 .721.099 1.395.297 2.023.198.627.491 1.171.881 1.63.39.459.87.823 1.439 1.09.569.268 1.232.401 1.987.401.755 0 1.42-.133 1.996-.401a4.266 4.266 0 0 0 1.457-1.09c.395-.459.692-1 .89-1.622a6.605 6.605 0 0 0 .297-2.014v-9.329a6.37 6.37 0 0 0-.306-1.997 4.895 4.895 0 0 0-.89-1.632 4.235 4.235 0 0 0-1.448-1.107c-.575-.273-1.241-.409-1.996-.409-.744 0-1.403.133-1.978.4a4.145 4.145 0 0 0-1.448 1.099 4.737 4.737 0 0 0-.88 1.64 6.614 6.614 0 0 0-.298 2.006v9.312ZM71.365 125.415c0-.195.047-.341.143-.438a.489.489 0 0 1 .364-.146h13.546a.47.47 0 0 1 .347.146c.095.097.143.243.143.438v1.906c0 .195-.048.335-.143.421a.504.504 0 0 1-.347.128H80.2v20.862c0 .195-.045.341-.135.438a.459.459 0 0 1-.355.146h-2.128a.478.478 0 0 1-.372-.146c-.09-.097-.135-.243-.135-.438V127.87h-5.202a.527.527 0 0 1-.364-.128c-.096-.086-.143-.226-.143-.421v-1.906ZM95.603 125.415c0-.195.048-.341.144-.438a.488.488 0 0 1 .364-.146h13.546c.135 0 .251.049.347.146.095.097.143.243.143.438v1.906c0 .195-.048.335-.143.421a.506.506 0 0 1-.347.128h-5.219v20.862c0 .195-.045.341-.135.438a.46.46 0 0 1-.355.146h-2.129a.477.477 0 0 1-.371-.146c-.09-.097-.136-.243-.136-.438V127.87h-5.201a.526.526 0 0 1-.364-.128c-.096-.086-.144-.226-.144-.421v-1.906ZM126.256 148.664c.075.195.065.352-.028.472-.094.12-.234.18-.421.18h-2.414a.925.925 0 0 1-.413-.102c-.136-.069-.23-.201-.28-.395l-1.254-4.513h-8.085l-1.235 4.513c-.05.194-.144.326-.281.395a.925.925 0 0 1-.412.102h-2.414c-.187 0-.325-.06-.412-.18-.087-.12-.1-.277-.037-.472l7.131-23.301c.062-.195.152-.332.271-.412a.702.702 0 0 1 .402-.12h2.078c.15 0 .287.04.411.12.124.08.218.217.281.412l7.112 23.301Zm-12.091-7.241h6.496l-2.958-10.741-.28-1.819-.281 1.819-2.977 10.741ZM129.538 125.654c0-.248.05-.447.15-.597a.507.507 0 0 1 .452-.226h2.027c.402 0 .603.275.603.823v3.353c0 .419-.059.775-.175 1.069a2.022 2.022 0 0 1-.467.726c-.195.19-.42.33-.674.422a2.273 2.273 0 0 1-.775.137c-.328 0-.492-.164-.492-.49v-.804c0-.157.048-.268.143-.334a.576.576 0 0 1 .333-.098c.148 0 .25-.046.308-.138.058-.091.088-.222.088-.391 0-.17-.025-.291-.072-.363-.047-.072-.134-.108-.261-.108h-.65a.497.497 0 0 1-.38-.176c-.106-.119-.158-.307-.158-.569v-2.236ZM137.618 125.466c0-.423.182-.635.547-.635h1.971c.364 0 .546.212.546.635v20.828h7.734c.155 0 .279.044.373.129.094.086.141.226.141.421v1.888c0 .195-.047.341-.141.438a.492.492 0 0 1-.373.146h-10.251c-.365 0-.547-.211-.547-.635v-23.215ZM152.161 125.466c0-.423.198-.635.594-.635h2.079c.373 0 .559.212.559.635v23.215c0 .424-.186.635-.559.635h-2.079c-.396 0-.594-.211-.594-.635v-23.215ZM165.259 132.92l-.642-2.309.214 2.291.142 16.946c.024.426-.154.639-.534.639h-2.082c-.19 0-.321-.059-.392-.178-.071-.118-.107-.277-.107-.479v-24.104a.718.718 0 0 1 .151-.426.473.473 0 0 1 .383-.16h2.51c.155 0 .264.048.329.142.065.096.128.226.187.391l5.849 15.489.285 1.474.285-1.492 5.884-15.471a1.77 1.77 0 0 1 .186-.391c.066-.094.176-.142.33-.142h2.478c.165 0 .292.054.38.16a.725.725 0 0 1 .151.426v24.104c.024.438-.136.657-.478.657h-2.089c-.354 0-.531-.213-.531-.639l.159-16.928.195-2.238-.605 2.238-4.984 13.091c-.06.201-.131.341-.214.417a.478.478 0 0 1-.338.116h-1.602a.454.454 0 0 1-.321-.116c-.082-.076-.154-.216-.213-.417l-4.966-13.091Z" fill="#fff"/><path fill-rule="evenodd" clip-rule="evenodd" d="m173.168 34.558-4.384.772c-8.937 1.573-17.25 3.976-24.819 6.802V17.784l-2.336 1.067a214.184 214.184 0 0 0-15.135 7.618L126.333.957l-2.541 1.648c-12.354 8.018-23.684 17.128-33.8 27.158-9.743-9.36-20.727-18.45-32.785-27.113L54.592.77v26.443a178.56 178.56 0 0 0-16.048-8.13l-2.334-1.037.109 22.641c-8.003-2.794-16.06-4.618-24.046-5.443l-3.93-.405 31.454 39.945-.14-29.24c5.406 2.143 10.408 4.59 14.935 7.111v25.315l.327.447c9.247 12.65 33.577 33.229 34.608 34.098l1.053.888 1.058-.882c1.031-.86 25.376-21.226 34.632-34.369l.546-.946-.15-23.568a153.596 153.596 0 0 1 13.984-6.597V74.91l32.518-40.353Zm-29.203 11.167c6.438-2.464 13.439-4.625 20.924-6.21l-20.924 25.964V45.725ZM15.941 39.096c7.228 1.058 14.06 2.898 20.395 5.19l.1 20.838L15.94 39.096ZM123.037 7.117l.033 21.3c-7.401 4.318-14.24 8.998-20.669 14.163a223.602 223.602 0 0 0-4.317-4.684 243.24 243.24 0 0 0-5.723-5.826c9.228-9.146 19.428-17.436 30.676-24.953ZM67.32 56.599a144.606 144.606 0 0 0-9.413-5.934V33.078a183.243 183.243 0 0 1 17.8 12.454A205.247 205.247 0 0 0 67.32 56.6Zm10.96-8.993a187.87 187.87 0 0 1 9.456 8.305 182.805 182.805 0 0 0-8.69 9.571 154.632 154.632 0 0 0-9.013-6.981 199.335 199.335 0 0 1 8.248-10.895Zm21.562-2.928a163.217 163.217 0 0 0-9.746 8.862 191.552 191.552 0 0 0-9.681-8.511 195.64 195.64 0 0 1 9.616-10.613c3.454 3.4 6.727 6.823 9.811 10.262Zm-.5 23.131c-4.439 3.62-7.507 6.547-9.093 8.132-1.527-1.625-4.468-4.617-8.665-8.288 2.796-3.3 5.648-6.44 8.57-9.43a190.902 190.902 0 0 1 9.188 9.586Zm-19.907 2.423c6.081 5.33 9.485 9.202 9.536 9.261l1.206 1.383 1.244-1.347c.051-.055 3.607-3.878 10.137-9.198a193.536 193.536 0 0 1 6.07 7.396l-16.936 16.27-17.198-16.155a215.246 215.246 0 0 1 5.94-7.61Zm13.08-14.375a160.297 160.297 0 0 1 9.547-8.663 187.24 187.24 0 0 1 9.37 11.677 162.626 162.626 0 0 0-9.475 6.852c-3.041-3.41-6.19-6.7-9.442-9.866Zm12.107-10.76c5.776-4.628 11.89-8.857 18.454-12.782l.03 19.44a161.96 161.96 0 0 0-8.895 5.297 191.68 191.68 0 0 0-9.589-11.955Zm-46.715-37.8c10.966 8.036 20.919 16.348 29.754 24.817a197.502 197.502 0 0 0-5.074 5.39 198.22 198.22 0 0 0-4.746 5.448 186.25 186.25 0 0 0-19.934-13.798V7.297Zm-13.483 36.56c-1.591-.69-3.186-1.34-4.785-1.953l-.089-18.675a176.407 176.407 0 0 1 15.042 7.86v17.723a129.835 129.835 0 0 0-10.168-4.955Zm20.987 15.494a213.782 213.782 0 0 0-7.504 11.806V54.565a141.056 141.056 0 0 1 7.504 4.786Zm25.18 49.675c-4.718-4.047-24.012-20.833-32.358-31.746a213.118 213.118 0 0 1 9.892-16.025c3.27 2.348 6.21 4.659 8.774 6.805a221.39 221.39 0 0 0-6.958 8.976l-.894 1.216 21.67 20.356L112.1 78.066l-.927-1.207a196.964 196.964 0 0 0-7.003-8.61 156.777 156.777 0 0 1 9.225-6.658c3.636 5.147 6.835 10.303 9.572 15.443-8.31 11.273-27.646 27.971-32.377 31.992Zm32.545-38.5a152.887 152.887 0 0 0-6.96-10.75 157.852 157.852 0 0 1 6.936-4.178l.024 14.929Zm3.506-20.67-.124-19.549a204.652 204.652 0 0 1 14.132-7.301v20.41a155.915 155.915 0 0 0-14.008 6.44Z" fill="#BA8E5B"/></svg>