<svg width="196" height="104" fill="none" xmlns="http://www.w3.org/2000/svg"><path fill-rule="evenodd" clip-rule="evenodd" d="M69.36 70.616c6.197-3.164 10.425-9.47 10.425-16.739 0-10.44-8.718-18.903-19.472-18.903-10.754 0-19.472 8.464-19.472 18.903 0 10.44 8.718 18.904 19.472 18.904l9.388 9.044 5.846-5.462-6.172-5.75-.014.003ZM49.294 53.877c0-5.908 4.933-10.698 11.02-10.698 6.086 0 11.019 4.79 11.019 10.698s-4.933 10.7-11.02 10.7c-6.086 0-11.02-4.792-11.02-10.7Z" fill="#E62B40"/><path fill-rule="evenodd" clip-rule="evenodd" d="M103.739 31.422H75.547v9.544h8.987V73.74h9.719V40.966h9.486v-9.544ZM128.231 42.704v-8.016h-23.346v35.22h23.346v-7.803h-15.369V55.72h12.666v-7.804h-12.666v-5.213h15.369ZM154.951 31.762h-21.483v41.977h9.645V61.443h12.379s11.93-.85 12.368-14.815c.438-13.965-12.909-14.866-12.909-14.866Zm-.743 20.989h-11.095V40.61l11.095-.106c.639-.006 4.311.993 4.457 5.852.146 4.86-4.457 6.394-4.457 6.394ZM195.013 69.908v-.01l-17.459-36.451-17.464 36.461h8.55l2.119-5.037h12.86l2.338 5.037h9.056ZM174.412 56.82l3.069-7.023 3.068 7.023h-6.137Z" fill="#E62B40"/><path fill-rule="evenodd" clip-rule="evenodd" d="m118.657 77.156-9.511 19.857h4.656l1.155-2.744h7.003l1.274 2.744h4.934l-9.511-19.857Zm-1.711 12.729 1.671-3.824 1.672 3.824h-3.343ZM150.358 76.934l-9.51 19.856h4.656l1.154-2.743h7.003l1.273 2.743h4.935l-9.511-19.856Zm-1.711 12.728 1.671-3.824 1.672 3.824h-3.343ZM99.343 92.662V77.529H94.96v19.484h12.373v-4.351h-7.99ZM189.44 77.435v8.547h-8.257v-8.547h-4.53v19.153h4.53V90.38h8.257v6.207h4.531V77.435h-4.531ZM122.799 80.13h5.846l5.334 12.308 5.81-12.308h6.028L134.308 104l-11.509-23.87ZM171.781 82.73l2.607-3.168s-2.635-2.774-6.542-2.628c-3.907.145-6.807 2.037-6.733 5.796.073 3.76 3.313 5.652 6.382 6.48 3.069.827 2.775 4.02.255 3.878-2.521-.142-4.396-1.656-4.396-1.656l-2.728 3.216s3.069 2.98 7.599 2.885c4.53-.095 6.139-4.209 6.163-6.243.024-2.033-.851-4.545-6.065-6.385-5.298-1.867-2.558-6.194 3.458-2.175Z" fill="#fff"/><path fill-rule="evenodd" clip-rule="evenodd" d="M74.231 28.102h6.772s3.36-4.705 17.244-4.729c13.884-.023 19.486 7.85 19.486 7.85l5.797.198s-7.989-11.145-23.821-11.642c-15.832-.496-23.14 6.195-25.478 8.323Z" fill="#D9D9DA"/><path fill-rule="evenodd" clip-rule="evenodd" d="M63.953 31.42h-5.017S69.653 10.203 97.81 9.943c0 0 22.481-.732 35.658 18.397h-5.237s-11.016-14.179-30.226-14.33c-19.211-.15-31.25 12.242-34.051 17.412Z" fill="#FDC900"/><path fill-rule="evenodd" clip-rule="evenodd" d="M45.637 36.19s3.458-2.625 7.014-3.642c0 0 11.473-26.814 44.671-27.24 0 0 26.708-1.948 41.797 22.748h6.113S132.275.922 97.81.177C63.344-.568 46.877 29.391 45.637 36.19ZM37.355 53.423c0-.573.03-1.138.077-1.699.124-3.905 1.215-7.543 3.034-10.632-3.938-5.822-10.72-9.67-18.43-9.67C9.866 31.421 0 40.998 0 52.813s9.865 21.392 22.036 21.392c7.77 0 14.592-3.911 18.516-9.81a20.397 20.397 0 0 1-3.197-10.973ZM22.035 64.92c-6.887 0-12.47-5.42-12.47-12.107 0-6.687 5.583-12.107 12.47-12.107 6.888 0 12.472 5.42 12.472 12.107 0 6.686-5.584 12.107-12.471 12.107Z" fill="#E62B40"/></svg>