<svg width="92" height="131" fill="none" xmlns="http://www.w3.org/2000/svg"><path fill-rule="evenodd" clip-rule="evenodd" d="M88.607 55.153c0 16.078-3.674 28.06-11.016 35.867-7.342 7.807-18.686 11.709-33.98 11.709-14.289 0-25.13-3.903-32.521-11.71C3.697 83.215.002 71.443.002 55.703V2.898A2.25 2.25 0 0 1 2.245.654h25.909a2.25 2.25 0 0 1 2.243 2.243v53.96c0 6.426 1.189 11.372 3.608 14.862 4.356 5.774 12.568 6.924 18.343 2.569a13.097 13.097 0 0 0 2.327-2.26c2.365-3.273 3.544-8.098 3.536-14.474V47.45h30.396v7.703Z" fill="#fff"/><path fill-rule="evenodd" clip-rule="evenodd" d="M86.257 41.548H58.213V3.004a2.356 2.356 0 0 1 2.35-2.35h4.197c.01 13.16 10.681 23.825 23.842 23.825h.006v17.069h-2.35Z" fill="#fff"/><path fill-rule="evenodd" clip-rule="evenodd" d="M70.734.654H86.26a2.356 2.356 0 0 1 2.35 2.35v15.544c-9.872 0-17.875-8.003-17.875-17.875V.654Z" fill="#F4821F"/><path fill-rule="evenodd" clip-rule="evenodd" d="M82.633 126.063h-2.045v-7.046h2.045a3.299 3.299 0 0 1 3.532 3.531 3.375 3.375 0 0 1-3.539 3.513l.007.002Zm0 2.112c3.532 0 5.982-2.231 5.982-5.627s-2.456-5.644-5.982-5.644h-4.445v11.271h4.445Zm-14.814-6.117H65.3v-3.041h2.51a1.53 1.53 0 1 1 0 3.041h.008ZM73.627 131l-4.135-7.117a3.231 3.231 0 0 0 2.467-3.346 3.51 3.51 0 0 0-3.785-3.633H62.9v11.271h2.4v-4.006h1.757l3.815 6.828 2.755.003Zm-20.29-6.849h-3.514l1.757-4.851 1.758 4.851Zm4.09 4.021-4.343-11.27h-3.007l-4.36 11.27h2.737l.71-1.91h4.833l.693 1.91h2.737Zm-20.965.203a5.19 5.19 0 0 0 4.715-2.772l-2.068-.996a3.022 3.022 0 0 1-2.653 1.638 3.705 3.705 0 0 1 0-7.401 3.055 3.055 0 0 1 2.653 1.639l2.068-1.015a5.162 5.162 0 0 0-4.715-2.754 5.833 5.833 0 1 0 0 11.66v.001Zm-11.468-.203v-2.111h-5.44l5.322-7.238v-1.926H16.41v2.113h5.323l-5.323 7.215v1.938l8.584.009Zm-19.902.203c3.43 0 5.087-1.91 5.087-4.714v-6.759H7.723v6.692a2.644 2.644 0 0 1-5.29 0v-6.692H0v6.779c0 2.771 1.655 4.698 5.087 4.698l.005-.004ZM91.53 116.69v.027a2.098 2.098 0 1 1-2.101-2.097H91.528l.001 2.07Z" fill="#fff"/></svg>